<svg id="Layer_1" data-name="Layer 1" xmlns="http://www.w3.org/2000/svg" viewBox="0 0 317.24 119.48"><defs><style>.cls-1{fill:#cb0000;}.cls-2{fill:#fff;}.cls-3{opacity:0.33;}.cls-4{opacity:0.85;}</style></defs><title>new-logo</title><path class="cls-1" d="M215.52,169l41.79,71H378V169H215.52Zm64.6,60h-9.56l-14.49-25,7.43,0.09a8.4,8.4,0,0,0,8.31-8.35,7.23,7.23,0,0,0-2.5-5.56A7.71,7.71,0,0,0,263.5,188H246.42l-4.85-9H263.5a16.75,16.75,0,0,1,16.62,16.71,15.84,15.84,0,0,1-2.94,9.45,16,16,0,0,1-7.31,6ZM321,229H286.57l9.05-8H321v8Zm0-21H287v-8h34v8Zm0-20H295.62l-8.31-9H321v9Zm43.42,25.74a27.26,27.26,0,0,1-5.37,8,25.23,25.23,0,0,1-8,5.32,24,24,0,0,1-9.68,1.94H324.74l8.31-8h8.31a17.28,17.28,0,0,0,6.5-1.38,16.57,16.57,0,0,0,5.31-3.69,18.18,18.18,0,0,0,3.56-5.34,16.49,16.49,0,0,0,0-12.9,17.09,17.09,0,0,0-3.62-5.31A16.74,16.74,0,0,0,347.8,189a17,17,0,0,0-6.44-1H333l-8.31-9h16.62a24.26,24.26,0,0,1,9.68,2.06,25.89,25.89,0,0,1,7.93,5.4,26.34,26.34,0,0,1,5.44,8A24.91,24.91,0,0,1,364.42,213.74Z" transform="translate(-60.76 -169)"/><path class="cls-2" d="M68.13,221.74a26.1,26.1,0,0,1-5.37-8,24.13,24.13,0,0,1-2-9.62,24.5,24.5,0,0,1,2-9.75,25.53,25.53,0,0,1,5.37-7.87,25,25,0,0,1,8-5.37,24.81,24.81,0,0,1,19.37-.06,25.92,25.92,0,0,1,8,5.44l-5.94,5.81a16.19,16.19,0,0,0-11.75-4.81,17.2,17.2,0,0,0-6.5,1.25A15.73,15.73,0,0,0,74,192.37a17,17,0,0,0-3.56,5.25,16.75,16.75,0,0,0,0,13,17.71,17.71,0,0,0,8.87,8.87,17.44,17.44,0,0,0,6.5,1.25l9.68,6.44a24.81,24.81,0,0,1-19.37-.06A26.1,26.1,0,0,1,68.13,221.74Z" transform="translate(-60.76 -169)"/><path class="cls-2" d="M147.11,186.5a25,25,0,0,1-17.62,42.61,24.92,24.92,0,0,1-17.62-42.61A24.74,24.74,0,0,1,147.11,186.5Zm-29.43,5.87a16.67,16.67,0,1,0,11.81-4.87A16,16,0,0,0,117.68,192.37Z" transform="translate(-60.76 -169)"/><path class="cls-2" d="M191.35,204.12a23.65,23.65,0,0,1-1.94,9.62,27.26,27.26,0,0,1-5.37,8,25.37,25.37,0,0,1-8,5.37,24,24,0,0,1-9.68,2H149.74l8.31-8.37h8.31a17.2,17.2,0,0,0,6.5-1.25,16.38,16.38,0,0,0,5.31-3.62,18,18,0,0,0,3.56-5.31,16.44,16.44,0,0,0,0-12.87,17.08,17.08,0,0,0-3.62-5.31,17.42,17.42,0,0,0-5.31-3.62,17.12,17.12,0,0,0-6.44-1.25H158l-8.31-8.37h16.62a24.2,24.2,0,0,1,9.68,2A25.81,25.81,0,0,1,184,186.5a26.28,26.28,0,0,1,5.44,8A23.65,23.65,0,0,1,191.35,204.12Z" transform="translate(-60.76 -169)"/><path class="cls-2" d="M231.53,179.13v8.37h-25l-8.31-8.37h33.3Zm-25,20.87h25v8.31h-33.3V200h8.31Zm0,20.74h25v8.37h-33.3v-0.69Z" transform="translate(-60.76 -169)"/><g class="cls-3"><path class="cls-2" d="M376,255.81v30.67H62.76V255.81H376m2-2H60.76v34.67H378V253.81h0Z" transform="translate(-60.76 -169)"/></g><g class="cls-4"><path class="cls-2" d="M86.79,264v2.68h-8L76.13,264H86.79Zm-8,6.68h8v2.66H76.13V270.7h2.66Zm0,6.64h8V280H76.13V279.8Z" transform="translate(-60.76 -169)"/><path class="cls-2" d="M110.81,269.86L109.13,272l-6.28-8h3.42ZM109.13,272l1.68,2.16L106.27,280h-3.42Zm3.38,0-1.7-2.16,4.56-5.84h3.38Zm0,0,6.24,8h-3.38l-4.56-5.84Z" transform="translate(-60.76 -169)"/><path class="cls-2" d="M148.55,269.36a5.33,5.33,0,0,1-5.32,5.34h-5.34V280h-2.66v-8h8a2.54,2.54,0,0,0,1.86-.78,2.57,2.57,0,0,0,.8-1.88,2.7,2.7,0,0,0-2.66-2.66h-5.34L135.23,264h8a5.13,5.13,0,0,1,3.76,1.56A5.21,5.21,0,0,1,148.55,269.36Z" transform="translate(-60.76 -169)"/><path class="cls-2" d="M167.49,264v9.7l-2.66,2.68V264h2.66Zm8,13.32V280H164.83l2.66-2.68h8Z" transform="translate(-60.76 -169)"/><path class="cls-2" d="M201.85,266.38a7.92,7.92,0,1,1-5.64-2.36A7.65,7.65,0,0,1,201.85,266.38Zm-9.42,1.88a5.34,5.34,0,1,0,3.78-1.56A5.12,5.12,0,0,0,192.43,268.25Z" transform="translate(-60.76 -169)"/><path class="cls-2" d="M224.93,274.28l3.28,5.74h-3.06l-4.64-8,2.38,0a2.7,2.7,0,0,0,2.66-2.68,2.49,2.49,0,0,0-.8-1.86,2.54,2.54,0,0,0-1.86-.78h-5.34l-0.3-.3L215.87,264h7a5.33,5.33,0,0,1,5.32,5.32,5.06,5.06,0,0,1-.94,3A5.16,5.16,0,0,1,224.93,274.28Z" transform="translate(-60.76 -169)"/><path class="cls-2" d="M250.41,277.34L249,280h-3l8-16,5.34,10.68h-3l-2.34-4.7-2.36,4.7ZM262.09,280h-3l-1.32-2.66h3Z" transform="translate(-60.76 -169)"/><path class="cls-2" d="M284,264v2.68h-5.32V280H276V264h8Z" transform="translate(-60.76 -169)"/><path class="cls-2" d="M302.87,277.34L300.21,280V264l2.66,2.64v10.68Z" transform="translate(-60.76 -169)"/><path class="cls-2" d="M330.65,266.38A7.92,7.92,0,1,1,325,264,7.65,7.65,0,0,1,330.65,266.38Zm-9.42,1.88a5.34,5.34,0,1,0,3.78-1.56A5.12,5.12,0,0,0,321.23,268.25Z" transform="translate(-60.76 -169)"/><path class="cls-2" d="M360.31,264v16l-13.3-12v-4l10.64,9.58V264h2.66Z" transform="translate(-60.76 -169)"/></g></svg>