<svg viewBox="0 0 318 71" version="1.1" xmlns="http://www.w3.org/2000/svg" xmlns:xlink="http://www.w3.org/1999/xlink">
    <defs></defs>
    <g id="Page-1" stroke="none" stroke-width="1" fill="none" fill-rule="evenodd">
        <g id="new-logo" fill-rule="nonzero">
            <path d="M154.76,0 L196.55,71 L317.24,71 L317.24,0 L154.76,0 Z M219.36,60 L209.8,60 L195.31,35 L202.74,35.09 C207.324593,35.0409562 211.022972,31.3247758 211.05,26.74 C211.076948,24.6087673 210.162139,22.574233 208.55,21.18 C207.004164,19.6716273 204.896523,18.8808084 202.74,19 L185.66,19 L180.81,10 L202.74,10 C211.924388,10.0712584 219.338343,17.5253615 219.36,26.71 C219.414465,30.093158 218.384158,33.404858 216.42,36.16 C214.643565,38.8508785 212.095572,40.9422544 209.11,42.16 L219.36,60 Z M260.24,60 L225.81,60 L234.86,52 L260.24,52 L260.24,60 Z M260.24,39 L226.24,39 L226.24,31 L260.24,31 L260.24,39 Z M260.24,19 L234.86,19 L226.55,10 L260.24,10 L260.24,19 Z M303.66,44.74 C302.359211,47.7043651 300.540813,50.4133386 298.29,52.74 C295.988702,55.0093751 293.272805,56.815447 290.29,58.06 C287.232641,59.3705007 283.936242,60.0311425 280.61,60 L263.98,60 L272.29,52 L280.6,52 C282.835541,51.9648414 285.043014,51.4961778 287.1,50.62 C289.09515,49.7506466 290.8995,48.4967761 292.41,46.93 C293.90395,45.3751997 295.109396,43.5670307 295.97,41.59 C297.721709,37.4684003 297.721709,32.8115997 295.97,28.69 C295.109982,26.7070063 293.8816,24.9051544 292.35,23.38 C290.809651,21.9277027 289.007803,20.7807642 287.04,20 C284.977914,19.2544587 282.79107,18.9148866 280.6,19 L272.24,19 L263.93,10 L280.55,10 C283.883938,10.0142274 287.179161,10.7154836 290.23,12.06 C293.186673,13.350236 295.876175,15.1816751 298.16,17.46 C300.451699,19.7679316 302.296137,22.4803398 303.6,25.46 C306.2071,31.6180859 306.228722,38.5658067 303.66,44.74 Z" id="Shape" fill="#CB0000"></path>
            <path d="M7.37,52.74 C5.09902726,50.4297078 3.27800329,47.7168229 2,44.74 C0.680604293,41.7044411 -0.000173957991,38.4298977 6.41688444e-15,35.12 C-0.0074578096,31.7673912 0.673253057,28.4489257 2,25.37 C3.28030493,22.4329439 5.10202128,19.7631287 7.37,17.5 C9.66323653,15.2081955 12.3803574,13.3843281 15.37,12.13 C21.5518154,9.48622619 28.5419249,9.46457381 34.74,12.07 C37.7244384,13.3652007 40.4383677,15.2106727 42.74,17.51 L36.8,23.32 C33.7015972,20.183736 29.4582013,18.4466523 25.05,18.51 C22.8228386,18.5019042 20.6153027,18.9264304 18.55,19.76 C16.5506168,20.5854381 14.7429629,21.8143704 13.24,23.37 C11.7344635,24.8811507 10.5267777,26.6621481 9.68,28.62 C7.92983131,32.7766166 7.92983131,37.4633834 9.68,41.62 C11.4554641,45.5598231 14.6101769,48.7145359 18.55,50.49 C20.617006,51.3177798 22.8234042,51.7420871 25.05,51.74 L34.73,58.18 C28.5319249,60.7854262 21.5418154,60.7637738 15.36,58.12 C12.3859435,56.8379203 9.67647629,55.0135231 7.37,52.74 L7.37,52.74 Z" id="Shape" fill="#FFFFFF"></path>
            <path d="M86.35,17.5 C93.4445294,24.6486985 95.5565848,35.3564869 91.707894,44.6636785 C87.8592031,53.9708702 78.8014305,60.0597341 68.73,60.11 C58.6206323,60.1376518 49.4962546,54.0550584 45.6331001,44.7128896 C41.7699456,35.3707208 43.9335824,24.6203308 51.11,17.5 C55.759522,12.7826702 62.106462,10.1267268 68.73,10.1267268 C75.353538,10.1267268 81.700478,12.7826702 86.35,17.5 Z M56.92,23.37 C51.2916959,28.9863799 50.4134327,37.7959972 54.8221453,44.4130043 C59.2308578,51.0300115 67.6991882,53.6122749 75.0499379,50.5811021 C82.4006876,47.5499292 86.5874538,39.7491797 85.0506152,31.9479198 C83.5137765,24.1466599 76.6811792,18.5167115 68.73,18.5 C64.287921,18.4132066 60.0097631,20.177358 56.92,23.37 L56.92,23.37 Z" id="Shape" fill="#FFFFFF"></path>
            <path d="M130.59,35.12 C130.623074,38.4270385 129.962181,41.7042501 128.65,44.74 C127.349211,47.7043651 125.530813,50.4133386 123.28,52.74 C120.980846,55.0245973 118.265213,56.8474659 115.28,58.11 C112.227057,59.4410976 108.930486,60.1222073 105.6,60.11 L88.98,60.11 L97.29,51.74 L105.6,51.74 C107.827161,51.7480958 110.034697,51.3235696 112.1,50.49 C114.09167,49.6457995 115.896399,48.415457 117.41,46.87 C118.903998,45.3265972 120.109677,43.5282396 120.97,41.56 C122.718981,37.4482596 122.718981,32.8017404 120.97,28.69 C120.110195,26.7068888 118.881788,24.904999 117.35,23.38 C115.819824,21.8544583 114.019189,20.6269063 112.04,19.76 C109.993981,18.9320944 107.807174,18.5076365 105.6,18.51 L97.24,18.51 L88.93,10.14 L105.55,10.14 C108.879902,10.133585 112.175297,10.8144519 115.23,12.14 C118.212862,13.4078826 120.93023,15.2262461 123.24,17.5 C125.532774,19.8070451 127.377356,22.5196661 128.68,25.5 C129.981888,28.5379726 130.632543,31.8150977 130.59,35.12 L130.59,35.12 Z" id="Shape" fill="#FFFFFF"></path>
            <path d="M170.77,10.13 L170.77,18.5 L145.77,18.5 L137.46,10.13 L170.76,10.13 L170.77,10.13 Z M145.77,31 L170.77,31 L170.77,39.31 L137.47,39.31 L137.47,31 L145.78,31 L145.77,31 Z M145.77,51.74 L170.77,51.74 L170.77,60.11 L137.47,60.11 L137.47,59.42 L145.77,51.74 Z" id="Shape" fill="#FFFFFF"></path>
        </g>
    </g>
</svg>
