<svg id="Layer_1" data-name="Layer 1" xmlns="http://www.w3.org/2000/svg" viewBox="0 0 767.05 129.29"><defs><style>.cls-1{fill:#fff;}</style></defs><title>BlueChasm</title><path class="cls-1" d="M24.44,319.48c0.94,0.38,1.92.69,2.82,1.15a5.76,5.76,0,0,1,3.43,5.55c-0.05,4.88,0,9.75,0,14.63q0,27.82,0,55.63c0,4.15-1.72,6.82-5.27,8.22a9.42,9.42,0,0,1-10.5-2.38,6.83,6.83,0,0,1-1.68-4.83c0-11.27,0-22.54,0-33.81q0-18.34,0-36.69c0-4.31.8-5.42,5-7a1.51,1.51,0,0,0,.43-0.47h5.76Z" transform="translate(84.52 -319.48)"/><path class="cls-1" d="M-84.52,400.12a9.41,9.41,0,0,1,3.64-2.05c4-1.36,8-2.77,11.82-4.41a22.44,22.44,0,0,0,10.54-9.37c1.52-2.52,3-5.06,4.49-7.6a4.05,4.05,0,0,1,5.1-1.88A2.93,2.93,0,0,1-47,377a12.26,12.26,0,0,1,.19,2.13c0,5.75-.2,11.51.07,17.24,0.28,5.94-3.72,8.35-8.17,8.94a16.51,16.51,0,0,1-2.15.07c-7.74,0-15.49,0-23.23,0a4.54,4.54,0,0,1-4.28-2v-3.36Z" transform="translate(84.52 -319.48)"/><path class="cls-1" d="M71,403.33V325.44a11.3,11.3,0,0,1,1.51-.19c12.63,0,25.26-.05,37.89.1a35.54,35.54,0,0,1,14.82,3.29c4.23,2,7.71,4.79,9.68,9.18a17.45,17.45,0,0,1-7.38,22.33c-1.18.65-2.42,1.18-3.63,1.77,1.69,0.66,3.37,1.17,4.9,2,8.53,4.36,11.14,13.78,10,20.76-1.07,6.8-4.86,11.44-10.76,14.59A30.65,30.65,0,0,1,114.14,403c-13.34.23-26.68,0.25-40,.35H71Zm19.76-15.61c6.18,0,12.16,0,18.14,0a11.68,11.68,0,0,0,6.28-2c3.32-2.12,4.86-8.08,1.11-11.68a12,12,0,0,0-8.52-3.13c-5-.09-10.06,0-15.08,0H90.77v16.88Zm0-31.3c5.79,0,11.38.06,17,0a9.86,9.86,0,0,0,3.91-1,7.34,7.34,0,0,0,4.43-7.54,7.19,7.19,0,0,0-5.27-6.7,12.27,12.27,0,0,0-3.29-.53c-5-.07-10.07-0.07-15.11-0.08-0.53,0-1.05.09-1.62,0.14v15.75Z" transform="translate(84.52 -319.48)"/><path class="cls-1" d="M682.52,403h-19.2v-2.58c0-9.68,0-19.36,0-29a17.88,17.88,0,0,0-.76-5.4c-2.52-7.63-11.45-8.48-16.64-4a12.81,12.81,0,0,0-4.09,7.4,26.15,26.15,0,0,0-.48,5c0,8.72,0,17.44,0,26.16,0,0.78,0,1.55,0,2.42H622.1c0-.81-0.06-1.65-0.06-2.5,0-9.76,0-19.52,0-29.27a22.47,22.47,0,0,0-.81-5.39c-1.17-4.49-6.18-7.46-11.4-6.33a11.64,11.64,0,0,0-8.82,8,18.71,18.71,0,0,0-1,6.58c0,8.8,0,17.6,0,26.4V403H580.89V343.47h19v9.31c1.21-1.5,2-2.67,3-3.7a20.64,20.64,0,0,1,12.07-6.31,25.14,25.14,0,0,1,14.1,1.32,19,19,0,0,1,9.7,9.19c0.29,0.57.56,1.14,1,2a17.5,17.5,0,0,0,1.1-1.53c4.53-8.08,11.63-11.42,20.65-11.32a21.25,21.25,0,0,1,12.39,3.72c4.77,3.37,7.27,8.16,8.19,13.8a44,44,0,0,1,.48,6.9c0,11.2,0,22.4,0,33.59V403Z" transform="translate(84.52 -319.48)"/><path class="cls-1" d="M409.44,320.65v31.66a71.36,71.36,0,0,1,5.29-5.25,20.15,20.15,0,0,1,12.34-4.54,36.6,36.6,0,0,1,7.85.44c8.47,1.62,13.59,7,15.71,15.16a31.46,31.46,0,0,1,.92,7.56c0.09,11.6,0,23.2,0,34.8V403H432.31c0-.9,0-1.76,0-2.61,0-9.2,0-18.4,0-27.6a25.29,25.29,0,0,0-.49-5.47C430.36,361,424.37,358,418,360c-4.69,1.49-7,5-8.08,9.54a20.45,20.45,0,0,0-.46,4.5c0,8.8,0,17.6,0,26.4V403H390.31V320.65h19.13Z" transform="translate(84.52 -319.48)"/><path class="cls-1" d="M372.25,351.34c-1.5-1.39-2.77-2.7-4.17-3.85-5-4.11-10.57-6.45-17.15-6A20.3,20.3,0,0,0,335,350.39c-6.33,8.87-5.3,23.19,3.08,30.64,6.81,6.05,14.5,7.14,22.9,3.89a33.08,33.08,0,0,0,9.88-6.18c0.35-.31.73-0.6,1.32-1.08l11.55,12.15c-0.69.71-1.29,1.41-2,2-7.12,6.37-15.37,10.67-24.82,11.94-11.94,1.6-22.95-1.17-32.38-9-7.91-6.54-12.25-15-13.69-25.17a38.49,38.49,0,0,1,25.09-42c16-5.71,30.85-3.23,44.32,7.19,0.88,0.68,1.71,1.44,2.55,2.18a10.2,10.2,0,0,1,.78.91Z" transform="translate(84.52 -319.48)"/><path class="cls-1" d="M238.75,343.3v59.62c-1.74.52-16.74,0.6-19.28,0.09v-9c-0.66.76-1,1.13-1.32,1.54A20.89,20.89,0,0,1,201.94,404a23.9,23.9,0,0,1-11.9-2c-6.24-3-9.67-8.14-11-14.78a34.26,34.26,0,0,1-.58-6.42c-0.05-12,0-24,0-36,0-.47.06-0.93,0.11-1.52h19.11c0,0.81.1,1.58,0.11,2.35,0,9.84,0,19.68,0,29.52a18.68,18.68,0,0,0,.52,4.5c2,7.82,10.32,9.12,15.65,5.44,3.7-2.56,5.22-6.46,5.3-10.75,0.18-9.44.09-18.88,0.11-28.31,0-.86,0-1.71,0-2.72h19.37Z" transform="translate(84.52 -319.48)"/><path class="cls-1" d="M515.87,403.23H497.2V397a1.25,1.25,0,0,0-.42.07c-4.31,4.67-9.71,6.66-16,7-4.72.25-9.22-.28-13.38-2.53-5.91-3.19-8.87-8.29-9.1-15a23.57,23.57,0,0,1,.29-5.48c1.27-6.18,5.25-10,11-12.15a33,33,0,0,1,11-1.87c4.88-.06,9.76,0,14.64,0,0.46,0,.92-0.06,1.33-0.09,1-3.85-1.33-8.3-6.64-9.55a24.77,24.77,0,0,0-13.19.89c-3.1,1-6.12,2.19-9.46,3.39L462,349.27a13.5,13.5,0,0,1,1.46-.87c7.49-3.26,15.18-5.62,23.44-6a41,41,0,0,1,15.72,2c7.55,2.66,13.2,9,13.33,18.52C516.11,376,516,389,516,402A10.47,10.47,0,0,1,515.87,403.23Zm-19-25.58c-4.75,0-9.53-.12-14.3.07a7.9,7.9,0,0,0-4.14,1.59c-3.58,2.7-2.47,9,1.85,10.87a12.57,12.57,0,0,0,5.86.79C493.59,390.55,498,385.17,496.87,377.65Z" transform="translate(84.52 -319.48)"/><path class="cls-1" d="M307.66,378.53H265.81A12.33,12.33,0,0,0,270,386c3.34,3,7.38,3.89,11.8,3.37a21.64,21.64,0,0,0,12.24-6l10,9.75a13.45,13.45,0,0,1-4.05,4,34.64,34.64,0,0,1-16.75,6.45A38.12,38.12,0,0,1,262.86,401c-9-4-14.31-11-16.12-20.61a34.3,34.3,0,0,1,2.53-21.73c3.9-8.08,10.5-12.94,19.06-15.07a37.4,37.4,0,0,1,21,.76c8.77,2.87,14,9,16.8,17.6a47.94,47.94,0,0,1,1.81,12.5A35.19,35.19,0,0,1,307.66,378.53Zm-18.44-10.68c-0.12-1-.18-1.72-0.29-2.42a11,11,0,0,0-2.83-5.95,11.76,11.76,0,0,0-18.24,1.81,13.13,13.13,0,0,0-2.42,6.56h23.78Z" transform="translate(84.52 -319.48)"/><path class="cls-1" d="M572.87,349.07c-0.35.78-.55,1.29-0.81,1.78-1.85,3.52-3.71,7-5.67,10.74-1-.44-1.83-0.8-2.66-1.21a40.52,40.52,0,0,0-11.44-4,37.41,37.41,0,0,0-6.89-.36,4.83,4.83,0,0,0-2.71,1.29,2.87,2.87,0,0,0-.06,4.57,14.8,14.8,0,0,0,3.88,2.25c2.53,0.94,5.15,1.63,7.74,2.42a47,47,0,0,1,11.4,4.77c10,6.2,9.12,19.62,2.28,26.12a22.92,22.92,0,0,1-12.31,5.95c-10.77,1.77-21.13.38-30.76-5-1.38-.78-2.68-1.7-4.19-2.67l6.12-12.28c2.3,1.27,4.45,2.61,6.73,3.7,4.95,2.36,10.13,3.86,15.68,3.5a9.23,9.23,0,0,0,3.42-.85,3.25,3.25,0,0,0,.57-5.81,13.42,13.42,0,0,0-3.79-2c-3.53-1.21-7.13-2.23-10.68-3.4-3.88-1.28-7.6-2.9-10.57-5.84-3.82-3.78-5-8.45-4.3-13.61,1-7.71,5.64-12.43,12.78-14.9a36.35,36.35,0,0,1,14.09-1.74,50.11,50.11,0,0,1,19.89,5.41C571.31,348.17,572,348.58,572.87,349.07Z" transform="translate(84.52 -319.48)"/><path class="cls-1" d="M148,320.56h19.21V403c-1.64.45-16.29,0.57-19,.15C147.77,401.4,147.59,325,148,320.56Z" transform="translate(84.52 -319.48)"/><path class="cls-1" d="M-13.06,367.73q0-14.64,0-29.27c0-3.72,1.1-5.45,4.65-6.57a12.48,12.48,0,0,1,9.11.39,5.76,5.76,0,0,1,3.68,5.83c-0.07,19.6-.2,39.19.06,58.79,0.08,5.77-5.8,9.16-10.18,8.4a9.71,9.71,0,0,1-5.1-2.48,6.93,6.93,0,0,1-2.25-5.33C-13,387.56-13.06,377.64-13.06,367.73Z" transform="translate(84.52 -319.48)"/><path class="cls-1" d="M-22,380.26c0,6.16-.08,12.32,0,18.48a5.45,5.45,0,0,1-3.44,5.47,11.84,11.84,0,0,1-10.4,0,5.89,5.89,0,0,1-3.64-5.93c0.08-7,0-13.92,0-20.87,0-5.12,0-10.24,0-15.36a5.82,5.82,0,0,1,3.69-5.87,11.77,11.77,0,0,1,10.17-.06,5.56,5.56,0,0,1,3.62,5.62C-22.1,367.94-22,374.1-22,380.26Z" transform="translate(84.52 -319.48)"/><path class="cls-1" d="M275.91,410.77h7.42l2.58,27.6h-5.27L279,421.77l-0.5,0-4.08,16.67h-6l-4.13-16.23-0.59,0c-0.69,5.36-.89,10.79-1.56,16.18h-5.23l2.42-27.59h7.44l4.45,18.06,0.3,0Z" transform="translate(84.52 -319.48)"/><path class="cls-1" d="M475.17,438.45H470v-20h4.12l1,1.51a2.35,2.35,0,0,0,.69-0.11c0.64-.33,1.24-0.74,1.88-1a7.36,7.36,0,0,1,8.9,1.34,47.34,47.34,0,0,1,5.16-1.91,10.12,10.12,0,0,1,3.77-.08c2.22,0.31,3.45,1.84,4.07,3.9a5.94,5.94,0,0,1,.28,1.65c0,4.86,0,9.71,0,14.68h-5.2c0-.63-0.12-1.25-0.12-1.87,0-3.76,0-7.52,0-11.27,0-2.62-1-3.41-3.63-3a10.73,10.73,0,0,0-1.17.27c-2,.59-2.25.87-2.26,3,0,3.52,0,7,0,10.55,0,0.7,0,1.41,0,2.24h-5.28c0-.57-0.12-1.19-0.12-1.8,0-3.76,0-7.52,0-11.27,0-2.7-1.21-3.58-3.81-2.91a12.93,12.93,0,0,0-1.35.47,2.48,2.48,0,0,0-1.75,2.74c0.11,3.83,0,7.68,0,11.51v1.33Z" transform="translate(84.52 -319.48)"/><path class="cls-1" d="M571.74,418.5l1,1.78c3.82-2.61,7.65-3.62,11.34-.13a46.79,46.79,0,0,1,5.37-1.93c4.76-1.1,7.79,1.26,8,6.22,0.14,3.67,0,7.35,0,11,0,0.94,0,1.88,0,2.94h-5.31c0-3.95,0-7.83,0-11.72a16.52,16.52,0,0,0,0-2.15,2.33,2.33,0,0,0-2.75-2.31,6.85,6.85,0,0,0-4.36,1.57v14.59H579.8c0-.59-0.09-1.19-0.09-1.8,0-3.6,0-7.19,0-10.79,0-3.3-1.44-4.29-4.58-3.19-2.14.75-2.43,1.15-2.43,3.46,0,4.06,0,8.13,0,12.33h-5.17V418.5h4.21Z" transform="translate(84.52 -319.48)"/><path class="cls-1" d="M397.61,411.77v4c-1.76,0-3.48,0-5.2,0s-3.19-.13-4.79-0.11c-2.36,0-2.81.51-2.88,2.8-0.1,3.26.35,3.72,3.65,3.73,1.2,0,2.4,0,3.6,0,3.79,0.09,5.86,1.73,6.38,5.44a21.8,21.8,0,0,1,0,5.93c-0.45,3.29-2.45,5.1-5.79,5.33a34.54,34.54,0,0,1-12.25-1V434h6c1.52,0,3,.13,4.55,0,1.77-.13,2.34-0.83,2.42-2.61a12,12,0,0,0,0-1.68c-0.15-1.54-.7-2.12-2.28-2.2s-3,0-4.55,0c-4.5-.1-6.82-2.27-7-6.72a23,23,0,0,1,.22-4.77c0.49-3.06,2.11-4.77,5.17-5.13A34.87,34.87,0,0,1,397.61,411.77Z" transform="translate(84.52 -319.48)"/><path class="cls-1" d="M208.31,438.45h-5.64l-2-6.06h-9l-2,6H184c2.93-9.32,6.15-18.4,9.2-27.63h6.15Zm-15.23-11h6.29c-1.08-3.09-1.73-6.13-3.17-9.41Z" transform="translate(84.52 -319.48)"/><path class="cls-1" d="M604.27,437.8v11h-5.15V418.54c1.9,0.33,4.16-1.16,5.09,1.74a41,41,0,0,1,4-1.58c4.25-1.18,7.27.58,8.27,4.85a22.28,22.28,0,0,1,0,10.42c-0.9,3.69-3.28,5.32-7,4.85C607.77,438.63,606.15,438.18,604.27,437.8Zm0.11-3.66c1.5,0.19,2.83.46,4.16,0.51,1.71,0.07,2.62-.42,2.75-2a44.61,44.61,0,0,0,0-7.83c-0.15-1.6-1.37-2.27-3-2-1.31.21-2.58,0.64-3.9,1v10.31Z" transform="translate(84.52 -319.48)"/><path class="cls-1" d="M326.3,425.21a14,14,0,0,0,1.32-1.18c1.31-1.5,2.64-3,3.86-4.58a2.64,2.64,0,0,1,2.45-1.11c1.59,0.07,3.19,0,5.26,0l-7.47,8.8,7.37,11.23h-6.3c-1-1.53-2-3.23-3.22-4.82s-1.73-3.32-3.78-4.79v9.63h-5.35V408.91h5.29v16Z" transform="translate(84.52 -319.48)"/><path class="cls-1" d="M406.08,448.69l2.74-10c-3.85-.31-5.37-2.83-6.18-6.22-1.11-4.64-2.42-9.22-3.68-14h5.59c0.63,2.46,1.27,5,1.91,7.51,0.49,1.93,1,3.87,1.44,5.81,0.33,1.27.34,1.27,2,2.19,1.65-5.1,2.67-10.31,4.2-15.48h5.43c-0.1.53-.18,1-0.3,1.52-2,7.72-4.07,15.42-6,23.15a14,14,0,0,1-2.85,4.93,1.85,1.85,0,0,1-1.21.58C408.16,448.75,407.22,448.69,406.08,448.69Z" transform="translate(84.52 -319.48)"/><path class="cls-1" d="M660.78,418.48c1.08,4.36,2.14,8.68,3.23,13,0.27,1.06.38,2.3,2.19,2.36l4-15.39h5.53c-0.88,3.4-1.71,6.68-2.57,10-1.25,4.78-2.58,9.54-3.75,14.35a13.24,13.24,0,0,1-2.85,5.19,2.73,2.73,0,0,1-1.61.73,19,19,0,0,1-2.69,0L665,438.64c-3.75-.36-5.28-2.7-6.07-5.93-1.16-4.72-2.48-9.39-3.77-14.23h5.62Z" transform="translate(84.52 -319.48)"/><path class="cls-1" d="M629.67,425.87c0.28-3.12-.16-3.7-2.83-3.64s-5.09.26-7.81,0.42v-3.39a19.58,19.58,0,0,1,3.25-.83,44.82,44.82,0,0,1,7.39-.33c3.54,0.26,5.4,2,5.54,5.44,0.2,4.85.05,9.71,0.05,14.78-2.07-.16-4.36,1.07-5.16-1.83a35,35,0,0,1-4.15,1.74,6.29,6.29,0,0,1-6.59-1.67c-1.64-1.67-1.59-7.4,0-8.79a7.39,7.39,0,0,1,2.84-1.62,17.1,17.1,0,0,1,3.8-.27C627.18,425.84,628.36,425.87,629.67,425.87Zm0,3.55c-1.28,0-2.46-.06-3.63,0-2.28.14-3.28,1.6-2.46,3.73a2,2,0,0,0,1.38,1,5.31,5.31,0,0,0,4.43-1.28c0.6-.59.32-2.06,0.42-3.14A1.36,1.36,0,0,0,629.7,429.42Z" transform="translate(84.52 -319.48)"/><path class="cls-1" d="M546.13,411.84V416c-1.23-.1-2.39-0.22-3.55-0.28-1.91-.09-3.82-0.24-5.73-0.19-2.25.05-3.41,1-3.9,3.16a26.36,26.36,0,0,0,0,11.16c0.52,2.51,2.16,3.72,4.82,3.78s5.41,0,8.34,0c0.43,1,0,2.35.23,3.89a43.76,43.76,0,0,1-4.52.82,48.8,48.8,0,0,1-6.22.12,7.18,7.18,0,0,1-6.74-4.57,24.85,24.85,0,0,1-1.5-5.74,27.68,27.68,0,0,1,.65-11.39c1.1-4,3.56-6,7.77-6.16A29.13,29.13,0,0,1,546.13,411.84Z" transform="translate(84.52 -319.48)"/><path class="cls-1" d="M252.66,426a10.39,10.39,0,0,1-.7,2.17c-1.77,3-3.61,6-5.43,9a0.75,0.75,0,0,0-.13.19c-0.57,2.93-2.55,3.31-5.14,3.18-3.66-.19-7.33,0-11-0.07-1.92,0-2.27-.67-1.29-2.36,2.18-3.78,4.42-7.53,6.59-11.33a1.93,1.93,0,0,1,1.87-1.16c4.78,0,9.56,0,14.35,0A4.25,4.25,0,0,1,252.66,426Z" transform="translate(84.52 -319.48)"/><path class="cls-1" d="M304.08,438.23h-3.94l-1.24-1.65a28.48,28.48,0,0,1-4.54,1.76c-4.58.93-7.58-2.1-7.3-5.88,0-.48,0-1,0-1.44,0.21-3.05,2-4.87,5-5,2.14-.11,4.3,0,6.4,0,0.7-2.83.06-3.77-2.58-3.75-2,0-4,.2-6,0.3-0.62,0-1.24,0-2,0v-3.09a8.76,8.76,0,0,1,1.35-.6,25.72,25.72,0,0,1,8.78-.84c4.12,0.31,6,2.38,6.09,6.51s0,8.47,0,12.71A9,9,0,0,1,304.08,438.23Zm-5.3-9c-1.69.1-3.27,0.1-4.81,0.3-1.25.16-1.79,1.31-1.59,3,0.16,1.34.65,1.8,2,1.75a7.66,7.66,0,0,0,4.38-1.54v-3.48Z" transform="translate(84.52 -319.48)"/><path class="cls-1" d="M228.12,408.76h2.43c3.92,0,7.84.07,11.75,0a3.38,3.38,0,0,1,3.35,1.78c2.09,3.56,4.19,7.11,6.26,10.69,1,1.65.57,2.38-1.31,2.39-4.4,0-8.79,0-13.19,0a2.22,2.22,0,0,1-2.13-1.24c-2.1-3.66-4.2-7.31-6.25-11A18.27,18.27,0,0,1,228.12,408.76Z" transform="translate(84.52 -319.48)"/><path class="cls-1" d="M456.56,430.77c0,2.67.42,3.34,2.63,3.42,2.85,0.1,5.7,0,8.66,0v3.15a7.14,7.14,0,0,1-1.81.6c-3.1.22-6.21,0.48-9.31,0.45a4.83,4.83,0,0,1-5-4,24.45,24.45,0,0,1,0-11.85,5,5,0,0,1,4.12-3.87,22.18,22.18,0,0,1,8.32,0c0.24,0,.47.11,0.7,0.17,2.72,0.71,3.74,3.62,3.46,7.61-0.18,2.62-1.78,4-4.62,4.25-1.59.12-3.2,0-4.79,0.05h-2.34ZM456.45,427c1.71,0,3.29.05,4.85,0a1.58,1.58,0,0,0,1.76-1.77c0.09-1.42-.42-2.48-1.47-2.59C457.8,422.23,456.07,422.43,456.45,427Z" transform="translate(84.52 -319.48)"/><path class="cls-1" d="M555.91,438.57c-0.75-.11-2-0.23-3.27-0.49a6.07,6.07,0,0,1-5-5.17,21.85,21.85,0,0,1,0-9C548.3,421,550,419,553,418.73a32.9,32.9,0,0,1,6.89,0c3.2,0.34,4.89,2.51,5.45,5.54a22.07,22.07,0,0,1,.13,7.86c-0.71,4.11-2.47,5.86-6.6,6.32C558,438.51,557.23,438.51,555.91,438.57Zm4.43-9.75c-0.06-1.1-.07-2.06-0.16-3-0.25-2.53-.93-3.15-3.49-3.19a9.92,9.92,0,0,0-1.43.05c-1.5.2-2.16,0.7-2.35,2.23a27.47,27.47,0,0,0-.29,5.47c0.25,3.4,1.2,4.1,4.61,3.89l0.48,0a2.29,2.29,0,0,0,2.39-2.21C560.27,430.92,560.27,429.79,560.34,428.82Z" transform="translate(84.52 -319.48)"/><path class="cls-1" d="M421,437.58V434h7.22c0.72,0,1.44,0,2.16,0,1.06,0,1.3-.69,1.3-1.6s-0.24-1.57-1.32-1.57c-1.6,0-3.2,0-4.8,0-3.76-.07-5.43-1.69-5.49-5.41a20,20,0,0,1,.32-3.8,3.49,3.49,0,0,1,3-3,33.5,33.5,0,0,1,12.59.68v3.39h-7c-0.56,0-1.12,0-1.68,0-1.65.08-1.89,0.32-1.88,2a9.86,9.86,0,0,0,.23,1.37c1.22,0,2.39.06,3.56,0.12a40,40,0,0,1,4.28.31,3.65,3.65,0,0,1,3.28,3.33,23.34,23.34,0,0,1-.08,5.44,3.46,3.46,0,0,1-3.25,3.07A37.33,37.33,0,0,1,421,437.58Z" transform="translate(84.52 -319.48)"/><path class="cls-1" d="M654.65,438.47h-5.13c0-.64-0.12-1.25-0.12-1.86,0-3.76,0-7.51,0-11.27,0-2.72-1.17-3.6-3.81-3a9.54,9.54,0,0,0-1.58.54,2.56,2.56,0,0,0-1.75,2.76c0.13,3.43,0,6.87,0,10.31v2.45H637.1v-20h4.2l1,1.6a36,36,0,0,1,4.9-1.89c3.57-.83,7.31.69,7.47,5.72C654.77,428.67,654.65,433.46,654.65,438.47Z" transform="translate(84.52 -319.48)"/><path class="cls-1" d="M502.06,437.6V434H512.5V431l-4.31-.1c-0.72,0-1.44,0-2.16,0-3.23-.17-4.83-1.75-4.94-5a21.88,21.88,0,0,1,.09-3.59,4,4,0,0,1,3.5-3.73,35.92,35.92,0,0,1,12.21.7v3.43h-2.77c-2,0-4,0-6,0-1.52,0-1.8.4-1.76,1.9,0,1.32.26,1.56,1.77,1.61,1.2,0,2.4,0,3.6,0a17.05,17.05,0,0,1,2.84.31,3.82,3.82,0,0,1,3.24,3.41,22.24,22.24,0,0,1,0,5,3.73,3.73,0,0,1-3.48,3.44A38.08,38.08,0,0,1,502.06,437.6Z" transform="translate(84.52 -319.48)"/><path class="cls-1" d="M440.42,422.64l-3-.21v-3l3-1.19,0.93-5.46h4.35v5.45h4.4v4.18h-4.22c0,3.36,0,6.53,0,9.7a2.54,2.54,0,0,0,2,2.44c0.68,0.22,1.34.47,2.07,0.72v3.14a27.49,27.49,0,0,1-5.65,0,3.68,3.68,0,0,1-3.17-2.9,26.09,26.09,0,0,1-.66-4.95C440.35,428,440.42,425.46,440.42,422.64Z" transform="translate(84.52 -319.48)"/><path class="cls-1" d="M223.1,414.5c0.49-.91.92-1.86,1.49-2.71,0.67-1,1.29-1,2,.06s1.29,2.2,1.93,3.3c1.53,2.62,3,5.26,4.62,7.83a3,3,0,0,1,.06,3.52c-2.15,3.54-4.18,7.16-6.28,10.73-1,1.77-1.6,1.78-2.62.08-0.28-.47-0.49-1-0.73-1.5a23.52,23.52,0,0,0,.55-3.49c0.06-5.11,0-10.23,0-15.34A2.51,2.51,0,0,0,223.1,414.5Z" transform="translate(84.52 -319.48)"/><path class="cls-1" d="M369.25,438.41h-5.17V410.79h5.17v27.63Z" transform="translate(84.52 -319.48)"/><path class="cls-1" d="M361.41,410.86V438.3c-1.63.47-3.33,0.15-5.12,0.2V410.86h5.12Z" transform="translate(84.52 -319.48)"/><path class="cls-1" d="M353.67,438.45h-5V410.83h5v27.63Z" transform="translate(84.52 -319.48)"/><path class="cls-1" d="M306.21,438.42V418.65h4.21l1,2.06c2.32-1.61,4.71-3.09,7.85-2.06v5c-1,0-2.08-.06-3.15.05a10.26,10.26,0,0,0-3,.63,2.71,2.71,0,0,0-1.76,2.82c0.11,3,0,6.07,0,9.11v2.19h-5.2Z" transform="translate(84.52 -319.48)"/><path class="cls-1" d="M223.1,414.5a2.51,2.51,0,0,1,1,2.48c0,5.11,0,10.23,0,15.34a23.52,23.52,0,0,1-.55,3.49l-4.3-7.33a1.28,1.28,0,0,0,.49-0.46c0-2.07.06-4.15,0-6.22a1.68,1.68,0,0,0-.6-0.64Z" transform="translate(84.52 -319.48)"/><path class="cls-1" d="M219.15,421.17a1.68,1.68,0,0,1,.6.64c0,2.07,0,4.15,0,6.22a1.28,1.28,0,0,1-.49.46l-2.35-3.67Z" transform="translate(84.52 -319.48)"/></svg>