<svg id="Layer_1" data-name="Layer 1" xmlns="http://www.w3.org/2000/svg" viewBox="0 0 274.46 125.33"><defs><style>.cls-1{fill:#fff;}</style></defs><title>Citadel</title><path class="cls-1" d="M93.45,170.67H92.54l-0.34-.13c-20.69-7.81-34.06-28-38.65-58.39A172.32,172.32,0,0,1,52.8,68.6l0.13-1L93,45.33l40.06,22.27,0.13,1a172.3,172.3,0,0,1-.75,43.55c-4.6,30.39-18,50.58-38.65,58.39ZM56.65,70.11c-1,9.19-6.93,79.43,36.34,96.44,43.3-17,37.32-87.25,36.34-96.44L93,49.91Z" transform="translate(-51.77 -45.33)"/><path class="cls-1" d="M94.28,74.38l30.9,18s-0.73,50.25-22.93,61.2V121.22l12.34-6.59L114.5,111s-14.56-.5-14.77,3.87c-0.12,2.62,0,14.43,0,14.43l-5.45,4V74.38Z" transform="translate(-51.77 -45.33)"/><path class="cls-1" d="M125.18,89.39l-30.9-18V56.69l12.37,6.81-0.13,6.87,8.25,5V68l10.11,5.62S125.45,85.37,125.18,89.39Z" transform="translate(-51.77 -45.33)"/><path class="cls-1" d="M91.71,74.38l-30.9,18s0.73,50.25,22.93,61.2V121.22L71.4,114.63,71.49,111s14.56-.5,14.77,3.87c0.12,2.62,0,14.43,0,14.43l5.45,4V74.38Z" transform="translate(-51.77 -45.33)"/><path class="cls-1" d="M60.81,89.39l30.9-18V56.69L79.34,63.5l0.13,6.87-8.25,5V68L61.13,73.63S60.54,85.37,60.81,89.39Z" transform="translate(-51.77 -45.33)"/><path class="cls-1" d="M176.51,109v11.92c0,6.36-3.14,9.51-9.51,9.51h-3.88c-6.36,0-9.51-3.14-9.51-9.51v-33c0-6.36,3.14-9.51,9.51-9.51h3.8c6.36,0,9.43,3.07,9.43,9.43V98.25h-7.68v-10c0-2-1-3-2.92-3h-1.32c-2,0-3,1-3,3v32.32c0,2,1,3,3,3h1.46c2,0,2.92-1,2.92-3V109h7.68Z" transform="translate(-51.77 -45.33)"/><path class="cls-1" d="M193.08,130h-7.82V78.8h7.82V130Z" transform="translate(-51.77 -45.33)"/><path class="cls-1" d="M206.35,130V85.89h-7V78.8H221.2v7.09h-7V130h-7.82Z" transform="translate(-51.77 -45.33)"/><path class="cls-1" d="M248.54,130h-7.75l-1-8h-8.12l-1,8h-7.24l7.31-51.26h10.38Zm-16-15h6.36l-3.22-25.88Z" transform="translate(-51.77 -45.33)"/><path class="cls-1" d="M254.91,78.8h11.77c7.6,0,11.19,3.66,11.19,11.19V118.8c0,7.53-3.58,11.19-11.19,11.19H254.91V78.8Zm7.82,44.31h2.85c3.07,0,4.46-1.46,4.46-4.53V90.21c0-3.07-1.39-4.53-4.46-4.53h-2.85v37.44Z" transform="translate(-51.77 -45.33)"/><path class="cls-1" d="M302.23,78.8v7.09h-9.58v14.48h9.21v7.09h-9.21v15.43h9.72V130H284.83V78.8h17.4Z" transform="translate(-51.77 -45.33)"/><path class="cls-1" d="M317,78.8v44.09h8.63V130H309.13V78.8H317Z" transform="translate(-51.77 -45.33)"/><path class="cls-1" d="M158.15,151.08c-2.05,0-4.07-1.26-4.07-4.68s2-4.66,4.07-4.66a3.74,3.74,0,0,1,3,1.28l-1.26,1.22a2.13,2.13,0,0,0-1.75-.86,2.06,2.06,0,0,0-1.69.81,3.38,3.38,0,0,0-.54,2.21,3.43,3.43,0,0,0,.54,2.23,2.06,2.06,0,0,0,1.69.81,2.13,2.13,0,0,0,1.75-.86l1.26,1.21A3.76,3.76,0,0,1,158.15,151.08Z" transform="translate(-51.77 -45.33)"/><path class="cls-1" d="M171.27,151v-0.83a3,3,0,0,1-2.43.94,3.23,3.23,0,0,1-2.45-.83,2.8,2.8,0,0,1-.72-2c0-1.53,1.06-2.63,3.17-2.63h2.39V145c0-1.17-.56-1.71-2-1.71a2.21,2.21,0,0,0-2,.9l-1.19-1.13a3.68,3.68,0,0,1,3.26-1.33c2.52,0,3.76,1.08,3.76,3.13V151h-1.8Zm0-4h-2.11c-1.12,0-1.67.47-1.67,1.31s0.52,1.3,1.73,1.3a2.19,2.19,0,0,0,1.66-.52,1.76,1.76,0,0,0,.4-1.35v-0.74Z" transform="translate(-51.77 -45.33)"/><path class="cls-1" d="M181.8,151.08a5,5,0,0,1-3.83-1.31l1.21-1.21a3.54,3.54,0,0,0,2.63,1c1.13,0,2-.4,2-1.26a1.07,1.07,0,0,0-1.22-1.08l-1.46-.13c-1.73-.16-2.7-0.92-2.7-2.52,0-1.8,1.53-2.79,3.44-2.79a5,5,0,0,1,3.39,1l-1.15,1.17a3.45,3.45,0,0,0-2.25-.67c-1.12,0-1.66.47-1.66,1.17s0.36,1,1.26,1l1.28,0.11c1.89,0.16,2.88,1,2.88,2.59C185.6,150.09,184,151.08,181.8,151.08Z" transform="translate(-51.77 -45.33)"/><path class="cls-1" d="M190.6,140v-1.94h1.94V140H190.6ZM190.66,151v-9.13h1.84V151h-1.84Z" transform="translate(-51.77 -45.33)"/><path class="cls-1" d="M203.75,151V145.4a1.77,1.77,0,0,0-1.84-2,1.82,1.82,0,0,0-1.89,2V151h-1.84v-9.13H200v0.92a3.26,3.26,0,0,1,2.43-1,3.16,3.16,0,0,1,2.25.83,3.35,3.35,0,0,1,.92,2.57V151h-1.84Z" transform="translate(-51.77 -45.33)"/><path class="cls-1" d="M214.34,154.77a4.22,4.22,0,0,1-3.22-1.21l1.17-1.17a2.57,2.57,0,0,0,2,.81,2.06,2.06,0,0,0,2.14-2.32v-1.17a2.81,2.81,0,0,1-2.36,1,3,3,0,0,1-2.18-.81c-0.88-.88-1-2.16-1-3.71s0.14-2.83,1-3.71a3.06,3.06,0,0,1,2.2-.79,2.8,2.8,0,0,1,2.4,1.08v-1h1.78v9.08A3.66,3.66,0,0,1,214.34,154.77Zm0.22-11.4c-1.66,0-1.87,1.42-1.87,2.86s0.22,2.86,1.87,2.86,1.85-1.42,1.85-2.86S216.21,143.37,214.56,143.37Z" transform="translate(-51.77 -45.33)"/><path class="cls-1" d="M234.3,151.08a5,5,0,0,1-3.83-1.31l1.21-1.21a3.54,3.54,0,0,0,2.63,1c1.13,0,2-.4,2-1.26a1.07,1.07,0,0,0-1.22-1.08l-1.46-.13c-1.73-.16-2.7-0.92-2.7-2.52,0-1.8,1.53-2.79,3.44-2.79a5,5,0,0,1,3.39,1l-1.15,1.17a3.45,3.45,0,0,0-2.25-.67c-1.12,0-1.66.47-1.66,1.17s0.36,1,1.26,1l1.28,0.11c1.89,0.16,2.88,1,2.88,2.59C238.1,150.09,236.48,151.08,234.3,151.08Z" transform="translate(-51.77 -45.33)"/><path class="cls-1" d="M249.42,150a3.69,3.69,0,0,1-2.74,1.08A3.65,3.65,0,0,1,244,150a6.51,6.51,0,0,1,0-7.18,3.65,3.65,0,0,1,2.72-1.08,3.69,3.69,0,0,1,2.74,1.08A6.51,6.51,0,0,1,249.42,150Zm-1.39-6.1a1.86,1.86,0,0,0-1.35-.52,1.82,1.82,0,0,0-1.33.52,5.29,5.29,0,0,0,0,5,1.84,1.84,0,0,0,1.33.54,1.88,1.88,0,0,0,1.35-.54A5.29,5.29,0,0,0,248,143.89Z" transform="translate(-51.77 -45.33)"/><path class="cls-1" d="M258.26,151a2.33,2.33,0,0,1-2.5-2.52v-10.3h1.84v10.19a0.88,0.88,0,0,0,1,1.06h0.81V151h-1.13Z" transform="translate(-51.77 -45.33)"/><path class="cls-1" d="M269.74,151V150a3.27,3.27,0,0,1-2.43,1,3.17,3.17,0,0,1-2.25-.83,3.35,3.35,0,0,1-.92-2.58v-5.83H266v5.56a1.77,1.77,0,0,0,1.84,2,1.82,1.82,0,0,0,1.89-2v-5.56h1.84V151h-1.8Z" transform="translate(-51.77 -45.33)"/><path class="cls-1" d="M280,151a2.38,2.38,0,0,1-2.5-2.54v-5.19h-1v-1.4h1v-2.61h1.84v2.61h1.76v1.4h-1.76v5.1a0.93,0.93,0,0,0,1,1.06h0.76V151H280Z" transform="translate(-51.77 -45.33)"/><path class="cls-1" d="M286.17,140v-1.94h1.94V140h-1.94ZM286.22,151v-9.13h1.84V151h-1.84Z" transform="translate(-51.77 -45.33)"/><path class="cls-1" d="M299.89,150a3.7,3.7,0,0,1-2.74,1.08,3.65,3.65,0,0,1-2.72-1.08,6.51,6.51,0,0,1,0-7.18,3.65,3.65,0,0,1,2.72-1.08,3.7,3.7,0,0,1,2.74,1.08A6.51,6.51,0,0,1,299.89,150Zm-1.39-6.1a1.86,1.86,0,0,0-1.35-.52,1.82,1.82,0,0,0-1.33.52,5.29,5.29,0,0,0,0,5,1.83,1.83,0,0,0,1.33.54,1.88,1.88,0,0,0,1.35-.54A5.29,5.29,0,0,0,298.5,143.89Z" transform="translate(-51.77 -45.33)"/><path class="cls-1" d="M311.87,151V145.4a1.77,1.77,0,0,0-1.84-2,1.82,1.82,0,0,0-1.89,2V151H306.3v-9.13h1.8v0.92a3.27,3.27,0,0,1,2.43-1,3.16,3.16,0,0,1,2.25.83,3.35,3.35,0,0,1,.92,2.57V151h-1.84Z" transform="translate(-51.77 -45.33)"/><path class="cls-1" d="M322.43,151.08a5,5,0,0,1-3.83-1.31l1.21-1.21a3.54,3.54,0,0,0,2.63,1c1.13,0,2-.4,2-1.26a1.07,1.07,0,0,0-1.22-1.08l-1.46-.13c-1.73-.16-2.7-0.92-2.7-2.52,0-1.8,1.53-2.79,3.44-2.79a5,5,0,0,1,3.38,1l-1.15,1.17a3.45,3.45,0,0,0-2.25-.67c-1.12,0-1.66.47-1.66,1.17s0.36,1,1.26,1l1.28,0.11c1.89,0.16,2.88,1,2.88,2.59C326.23,150.09,324.61,151.08,322.43,151.08Z" transform="translate(-51.77 -45.33)"/></svg>