<svg id="Layer_1" data-name="Layer 1" xmlns="http://www.w3.org/2000/svg" viewBox="0 0 520.07 460.06"><defs><style>.cls-1{fill:#fff;}.cls-2{fill:none;}</style></defs><title>CSGirls</title><path class="cls-1" d="M247.52,8.32c3.81-2.66,7.8-5.06,11.5-7.89,1.6,0.2,3.42-.28,4.86.63C268.69,4,273.16,7.5,278,10.35c7.67,1.7,14-3.74,21-5.69,4.43-1.38,6.8,3.51,9.68,5.88,11.42-.09,22.83,0,34.25-0.05,3.32-.41,5.65,2.59,7.29,5,0.58,5.76.33,11.64,1.36,17.37a24.38,24.38,0,0,0,1.61,2.68c4.92,0,9.94-.56,14.78.63,2.64,0.6,5.47-.12,8.06.75,2.06,2.06,2.43,5.24,3.55,7.86,1.8,4.41,3.25,8.94,4.82,13.44,7.39,2.07,15,3.5,22.25,6.08,2.43,7.31,1.73,15.35,4.17,22.65,6.23,3.61,13.14,6,19.22,9.86,2.74,2.09.37,5.35,0.45,8.08,0,5.26.09,10.53-1.09,15.7a154.53,154.53,0,0,1,18.14,14.3c-1.67,7.47-4.06,14.81-6.27,22.15,4.74,4.86,8.71,10.4,13.24,15.45a3.48,3.48,0,0,1,.46,4.32c-2.85,6.22-6.18,12.18-9.61,18.1,2.88,6.61,7.24,12.45,10,19.14,0.76,1.75-.64,3.25-1.59,4.56-4.11,5-8.39,9.87-12.38,15,2.39,6.34,3.77,13,5.9,19.45,0.79,1.73-.37,3.48-1.75,4.48-5.43,4.12-10.92,8.19-16,12.71,1.84,6.47,0,13.29,1.87,19.75,0.47,2.09-1.64,3.59-3.26,4.4-5.82,2.92-11.66,5.81-17.49,8.72-1.4,6.9-1.68,14-3.33,20.82-0.15,2.24-2.65,2.67-4.35,3.31-6,1.41-11.94,3.32-18,4.7-3.45,6.6-5.23,14-8.22,20.77-1.85.76-3.67,1.89-5.75,1.77-5.92.07-11.85-.12-17.77,0.11-2.28,3.93-4.9,7.64-7.16,11.58-1.67,2.36-2.89,5.17-5.22,7-2.65.87-5.46,0.15-8.1-.37-5-.82-9.94-1.7-14.91-2.5-5.49,5.22-10.49,10.92-15.81,16.27-7.57-2.07-14.46-6.12-22-8.1-5.38,3.36-10.64,7-15.82,10.62a10.48,10.48,0,0,1-4,1.68A202.37,202.37,0,0,0,242,378.47c-7.25,1.9-14,5.46-21,8.1-6.27-4.68-11-11-17-16.09-7.08.29-13.9,3.13-21,3-3.12.21-4.2-3.14-5.56-5.28-3-4.55-5.6-9.38-8.84-13.78-5.9.07-11.81,0.06-17.71,0a9.13,9.13,0,0,1-5.56-1.89c-3.05-6.8-5-14-7.91-20.89-6.21-1.28-12.33-3-18.5-4.47-1.53-.61-4-1-4.23-3-0.79-6.06-1.88-12.08-2.43-18.16a8.33,8.33,0,0,0-1-2.79c-6.25-3.89-13.49-6.2-19.54-10.37-0.68-4.29-.29-8.69-0.28-13a48.24,48.24,0,0,0,1-10.09c-5.18-3.83-10-8.14-15.25-11.87-1-.89-2.47-1.58-2.82-3,1.91-7.35,4.67-14.57,6-22-4.26-4.91-8.3-10-12.57-14.9-1.11-1-1.3-2.46-1.64-3.81,4.27-5.92,6.73-12.9,10.26-19.26-2.49-4.72-4.55-9.69-7.5-14.16a22.66,22.66,0,0,1-2.85-6.74c5-5.52,9.53-11.45,14.44-17.06-2-7.42-4.36-14.73-6.16-22.2,5.74-5,11.75-9.7,17.92-14.15a26,26,0,0,0-.6-8.75c-0.69-4.76-.11-9.59-0.36-14.37,6-4.57,13.32-6.79,20-10.17,1.93-7.56,1.82-15.61,3.92-23.07,7.15-2.71,14.81-3.82,22.14-6,3-6.85,5.08-14.08,7.91-21,2.53-1.59,5.78-.37,8.58-1.12,5.08-1.24,10.33-.58,15.5-0.67,0.37-6.1.1-12.24,0.67-18.31,0.16-3.85,3.4-6.68,7-7.32a46.3,46.3,0,0,1,15.75.39c6.88,0.22,13.77,0,20.65.07,2.55-2.24,4.58-6.46,8.54-5.88,7.08,1.56,13.33,6.75,20.9,5.9,1.76,0.09,3.09-1.22,4.51-2.07M251,12.56c6.9-.32,13.78.4,20.68,0.13-3.45-2.4-7-4.65-10.43-7.06-3.35,2.4-6.8,4.67-10.25,6.93M221.31,9.62l-2.46,2.92c3.71,0,7.43-.15,11.14.08a66.42,66.42,0,0,1-8.68-3m72.27,3c3.32,0.12,6.64.1,10,.15q-1.47-1.59-2.91-3.2c-2.39.93-4.76,1.89-7,3.05m-80.65,2.63c-9,.07-18,0.65-26.93-0.76-3.39,0-7.83-.76-10.3,2-1.77,7.65-.2,15.7-1.76,23.43-1,13.66-.13,27.41-1.13,41.08-0.25,15-.61,30-0.6,45-0.52,2.77,2.36,4.59,4.83,4.45,56,0.35,112,.34,168,0.28a3.29,3.29,0,0,0,3.69-3.68c0-25.7-1.22-51.36-1.37-77.06,0.24-11-2-21.82-1.82-32.8-1.16-.59-2.16-1.71-3.55-1.64-11-.2-22,0.11-33-0.11a70.65,70.65,0,0,0-24,0c-6.07.83-12-1.35-18-.95-7,.08-14.14-1-21.08.5-4.93,1.09-9.9-.13-14.81-0.63-6.07-.24-12.2-0.42-18.16.93M348.8,39.86c0,3,0,6.09,0,9.13a173.09,173.09,0,0,1,57.1,55.11A168.3,168.3,0,0,1,432.6,198c-0.13,39.31-14.9,78.28-40.46,108.1a170.63,170.63,0,1,1-220.43-255,85.06,85.06,0,0,1,.35-10.71c-5.37.37-10.83-.42-16.13,0.8a33,33,0,0,1-6.44.3c-1.87,5.08-3.77,10.15-5.5,15.28-1.15,2.47-2,5.8-5,6.59-6.38,2-12.94,3.24-19.38,5-0.68,5.88-1.75,11.72-2.37,17.62-0.52,2.21-1,4.92-3.29,6-5.76,3-11.64,5.83-17.46,8.73-0.76,7.44,2.25,14.8.63,22.18-2,2.8-5,4.52-7.54,6.71-3,2.34-5.83,5-9.15,6.88,1.39,7.55,5.47,14.72,5,22.52A117.92,117.92,0,0,1,72,175.25a164.65,164.65,0,0,1,8.69,16.2,7.61,7.61,0,0,1,0,7.15c-2.71,5.51-5.52,11-8.27,16.49,4.07,4.48,7.8,9.26,11.71,13.89,2.09,2.07,1.51,5.31,1.14,7.93q-2.38,8.26-4.81,16.52c4.93,3.76,9.69,7.73,14.61,11.51,0.9,0.87,2.17,1.67,2.3,3,1,7.33-1.6,14.5-.85,21.84,6.37,3.22,12.88,6.18,19.12,9.65,1.39,2.2,1.72,4.91,2,7.46,0.61,5,1.52,10,2.06,15,6.36,1.48,12.67,3.14,19,4.65A4.41,4.41,0,0,1,142,329c3.28,6.53,4.87,13.74,7.94,20.36,7.33,0.5,14.74-.38,22,0.47a194.85,194.85,0,0,1,11.94,18.88c5.68-1.27,11.4-2.39,17.17-3.19,2.37,0,5.29-.63,7.06,1.4,4.6,4.51,9.08,9.14,13.67,13.67,4.57-2.13,9.31-3.85,13.95-5.79,3.3-1.38,7.38-2.22,10.56-.11,5,3.16,9.87,6.49,14.72,9.86,4.83-3.36,9.7-6.67,14.66-9.83,3-2,6.84-1.44,10-.16,4.88,2,9.82,3.82,14.6,6,4.58-4.53,9.07-9.16,13.67-13.66,2.06-2.22,5.4-1.4,8.07-1.3,5.38,1,10.86,1.6,16.17,3,4.51-6.07,7.29-13.56,12.94-18.67,6.7-1.14,13.62.16,20.38-.62,1.7-.28,1.76-2.32,2.36-3.57,2.17-5.78,4.06-11.69,6.6-17.32,3.57-2.36,8.06-2.43,12-3.87,3.2-1.18,6.84-1.38,9.85-2.84,2.23-7.2,1.52-15.15,4.09-22.21,6.29-3.47,12.82-6.51,19.27-9.68-0.37-5.6.43-11.3-1-16.8-0.15-2.32-.88-5.41,1.28-7,5.32-4.13,10.47-8.48,15.89-12.46-1.68-5.86-3.35-11.72-5.07-17.57-0.33-2.09-.84-4.69.7-6.43,4.32-4.8,8.32-9.89,12.47-14.83-3.08-5.92-6.79-11.52-9.25-17.74-1-3.22.85-6.23,2.44-8.88a133.48,133.48,0,0,0,6.8-12.85c-4.21-4.53-8-9.44-12-14.16-2-1.81-1.65-4.68-1.17-7,1.67-5.77,3.36-11.52,5-17.31-4.87-3.94-9.92-7.65-14.81-11.56-3-2-2.72-5.94-2.1-9.08,1.25-5.2.42-10.59,0.82-15.87-5.7-3.09-11.88-5.13-17.56-8.23-2.41-1.06-2.59-3.88-3.11-6.11-0.85-5.84-1.53-11.72-2.55-17.54-6.6-1.62-13.21-3.24-19.72-5.18-2.69-.65-3.4-3.71-4.28-5.94-1.56-5.3-3.93-10.31-5.44-15.62a39.64,39.64,0,0,1-7.78-.58c-5.41-1.16-11,.21-16.39-1.14m0.46,15.73c0,4,.24,8,0.22,12.07a155.18,155.18,0,1,1-222,205.91,155.26,155.26,0,0,1-2.65-150.77,155.53,155.53,0,0,1,46.37-52.89c0.19-4.13.35-8.25,0.27-12.38a167.46,167.46,0,0,0-48.38,48.53,164.49,164.49,0,0,0-6.58,168.5A165.52,165.52,0,0,0,367.7,322.75a170,170,0,0,0,31.38-34.6A164.83,164.83,0,0,0,410,122a165.62,165.62,0,0,0-60.7-66.44m0.49,18.72c-0.32,11.58.51,23.15,0.64,34.73-0.2,7.13.94,14.33-.26,21.41a16.92,16.92,0,0,1,3.87,1.7c13.78,11.22,27.87,22.06,41.83,33.05,0.72,0.85,2.39,1.4,2,2.79,0.16,3.59-3.69,5.74-6.9,5.5q-27.55,0-55.09,0c-0.78,1.61-1.56,3.22-2.37,4.83a62,62,0,0,1,18.35,13.77c6.75,7.7,12.31,17.4,12,27.95,0.22,9.09-4.15,17.95-10.79,24s-15.49,9.34-24.4,9.84c0,25.4-.06,50.79,0,76.19,13.46-7.06,26.24-15.62,37.09-26.33a149,149,0,0,0,38-156.82,151.28,151.28,0,0,0-54-72.63M112.16,196c-0.52,26.15,6.89,52.24,20,74.8a149.88,149.88,0,0,0,62.12,58.52c0.06-25.42,0-50.84,0-76.26-5,.52-10.05.71-14.89-0.65-11.35-3.15-21-12.72-23.28-24.4-1.25-5.63-.13-11.46,1.36-16.92,4.35-14.53,15.81-26.18,29.32-32.64-0.71-1.67-1.42-3.33-2.12-5-18.23,0-36.47.05-54.7,0-3.76.34-6.4-2.87-6.83-6.33q19.63-15.39,39.22-30.86c3-2.26,5.63-5.5,9.69-5.58-0.89-1.42-2-2.86-1.8-4.65,0-16.47.69-32.92,0.92-49.38-36.81,27.64-60,73.16-59,119.36m55.32-61.53c-13.22,10.81-26.95,21-40.09,31.9,31.92,0.26,63.86-.09,95.78.17-3.68-2.34-.42-6.15.32-9.15,1.18-2.37,1.32-5.62,3.61-7.23,22-.15,44-0.33,66-0.15,1.66-.17,2.59,1.38,3.07,2.71,1.55,4,3.16,8,3.78,12.27-9.93.53-19.88,0-29.81,0.29l0.15,1.24c41.3-.18,82.61,0,123.92-0.11-12.08-9.84-24.51-19.26-36.67-29-2.11-1.62-3.94-3.74-6.42-4.81-4.86-.36-9.75-0.06-14.61-0.08,4.87,4.92,10.08,9.51,14.66,14.71-4.88,2-10.09.15-15.13,0.59-7.27.76-14.59,0.24-21.88,0.38-2.72,0-5.45,0-8.17,0-4.68-.65-9.42.6-14.07-0.44l-3.87.49c-5.68.13-11.37-.16-17-0.07q-4,.11-7.93,0c-3,0-6,0-9,0-3.35,0-6.71,0-10.06.1-1.7-.13-3.4-0.32-5.09-0.52-5.64-.11-11.3,1.17-16.91,0-4.68-.09-9.34.69-14,0.42-10.34-.14-20.67.45-31,0.31a11.87,11.87,0,0,1-4.91-1.26c5-5.09,10.54-9.65,15.83-14.44-5.64,0-11.28-.19-16.91,0-1.38-.06-2.44,1-3.48,1.7m19.25,1.57c2.79,0.11,5.59-.05,8.39.15-2.23,1.91-6,.65-8.86,1.05l-0.13,1.24c4.27-.15,8.56.23,12.8-0.41l-1.6-1.36c-0.09-.29-0.28-0.87-0.38-1.16a48.17,48.17,0,0,0,8.57.57l0-1.36c-2.4,0-4.81,0-7.21,0,0.17-.4.49-1.2,0.65-1.6-3.59,3-8.67.08-12.2,2.86m19.91-1.5c-0.39.85-.79,1.7-1.19,2.55l-5.07.44c2.81,1.31,5.95.83,8.94,1-0.15-.49-0.44-1.46-0.58-1.95l-2.13-.67c3.4-.16,6.82.32,10.2-0.3l0.68,1.28c-2.49-.06-5-0.2-7.47-0.47,0,1.06.08,2.13,0.13,3.19l0.51-.08,2.15,1.15a12.94,12.94,0,0,0-.39-2.48c3,0,6,.07,9.05,0q-2.29-1.23-4.56-2.49c2.34,0.1,4.67.66,7,.36,4.41-.72,8.84.41,13.27-0.16l1.27,1.18c-5,.52-10.05-0.53-15.08,0l0,1.52c2.72-.17,5.44-0.35,8.17-0.5v1.11c-2.61,0-5.45-.05-7.44,1.94l2.8,0.06c-0.07.3-.19,0.88-0.26,1.18a32.51,32.51,0,0,0-9.34-.53l-0.06-1q2.57,0.75,3.85-.82c-0.11-.24-0.34-0.72-0.45-1-1.62.48-6.94-.61-6.06,2.27l0.18,0.44c-2.84,0-5.67,0-8.51,0l0.09-1,4.84-.26c-2.71-1.58-5.93-.86-8.89-0.77,0.58,0.39,1.72,1.19,2.3,1.59-0.47,1-.91,2-1.36,2.95-2.84.32-6.83-1.15-8.51,2,4.48,0.29,9,0,13.44.37a161.76,161.76,0,0,1,17.89-.05c19.87-.2,39.79-0.39,59.65.09a123.17,123.17,0,0,1,12.89-.21l0.06-2c-4.21,0-8.41,0-12.61.07-0.06-.29-0.17-0.87-0.23-1.16,3.4,0,6.8,0,10.2.3,3.52-.21,7.09-0.17,10.51-1.19,0.07,0.43.2,1.31,0.26,1.75a34.46,34.46,0,0,1-7.93-.14c0.24,1.05.49,2.11,0.73,3.17,3.74-1.38,7.76-.69,11.64-1l-2.39-2.48a6.4,6.4,0,0,0-2.31-3.53l3.32,0.09-2-2.44a31.94,31.94,0,0,0,10.73,0c-1.74,1.4-4,1.66-6.08,2.15,1.65,0.26,3.3.49,5,.7a27.74,27.74,0,0,1,.73,2.71c-2.63.16-5.27,0.31-7.9,0.42l1.43,3.39,2-.14c-0.13-.47-0.38-1.42-0.51-1.89,3,0.15,6.07.16,9.11,0.16,1,0.82,2.12,1.62,3.2,2.41-0.44-1.47-.89-2.94-1.34-4.4l-4.16.14c-0.61-1.44-1.06-2.92.89-3.52-1.18-1.36-2.35-2.73-3.51-4.09,6.64-1.52,14,2.53,20.09-1.53-4.07.31-8.14,0.35-12.22,0.38,0-.44.14-1.32,0.19-1.77l-1,.13c0,0.4.14,1.19,0.19,1.59a190.53,190.53,0,0,0-20.42.12l0.36-1.49c-4.09.08-8.17,0-12.25,0l0.49,1.67c-4.66-2.35-9.89-1.37-14.88-1.62-2.32,0-4.76-.19-6.91.87-2.85.31-5.71,0.47-8.56,0.59-0.15-.65-0.43-1.95-0.57-2.6l-0.48,2.44c-10.43.58-20.82-.55-31.24,0.12,0.13-.43.4-1.28,0.54-1.7-3.56,1.92-7.63,1.69-11.54,1.62l0.59-1.51c-3.17,2-7,1.46-10.5,1.56,0.08-.46.25-1.39,0.33-1.85l-3,1.56m113.71,2.81c1,1.64,4.45,1,6.22.55-1.29-1.3-4.46-1.3-6.22-.55m8.11,0.07c-0.29,1.4.26,1.94,1.64,1.59,0.31-1.38-.24-1.91-1.64-1.59m-128.73.28h0M200.2,140c0.62,1.24,1.35,1.25,2.17,0-0.64-1.28-1.37-1.29-2.17,0m23.19-1q-2,1.46-.09,2.35c1.1-.83,1.13-1.61.09-2.35m87.66,0.36c-1.7,2.87,3.42.33,0,0m10.8,0.13c-0.3,1.41.23,1.91,1.6,1.5,0.32-1.42-.22-1.93-1.6-1.5m-140.4.83h0m13.8-.42c-0.17,1.47,3.42,1.45,3.3,0a2.76,2.76,0,0,0-3.3,0m-14.61,1.27a64.91,64.91,0,0,0-6.83,5.77c0.6,0.25,1.82.73,2.43,1,0.12-.67.35-2,0.47-2.67,0.77,0.37,1.52.76,2.25,1.19,5,0.27,10.13-.49,15.06.68,0.54-1,1.08-2.06,1.63-3.08-5.77,1.24-11.73-.09-17.54.91a11.74,11.74,0,0,0,2.53-3.77m-0.55,2.15c7.55,0.2,15.2.5,22.68-.48,0-.28.07-0.83,0.09-1.11-6.33,0-12.65-.26-19-0.2-1.59-.37-2.67,1-3.79,1.79m136.7-.24c0-.21,0-0.65,0-0.86a44.35,44.35,0,0,0-8-.77c1.17,3.45,5.41,1.44,8.07,1.63M227,151.34c-1.46,4.42-3.22,8.72-4.7,13.14,25.55,0.19,51.09-.18,76.63-0.3-1.35-4.45-3-8.79-4.78-13.1-22.38-.16-44.77-0.17-67.15.26M124.67,168.55c2.81,4.2,8,3.13,12.3,3.21,34.58,0,69.17-.11,103.75.07-0.15-1.22-.29-2.43-0.42-3.64-37.1.16-74.2,0-111.3,0.08-1.45,0-2.89.14-4.33,0.28m116.4,0c0.42,1.44,1,3.38,2.92,3.17,11.31,0.06,22.65.19,33.95-.06,2,0,1.5-2.06,1.75-3.4-12.87.22-25.76-.33-38.62,0.29m39.52-.14c0,0.86,0,2.58.06,3.43,34.76-.14,69.52,0,104.28-0.05,4-.07,9.27,1,11.52-3.35-8.83-.34-17.67-0.07-26.51-0.16-29.78.09-59.57-.16-89.35,0.13m-91.68,5.16q1.2,2.92,2.56,5.77c45.89-.17,91.78,0,137.68-0.08,0.81-1.92,1.65-3.83,2.5-5.73-47.58,0-95.16-.05-142.74,0m-21.43,29.87c-3.68,6.94-6,15.19-4,23,2.11,9,9.39,15.89,17.48,19.79,6,2.9,13.38,4.43,19.66,1.44,5.32-2.45,8.44-8,9.73-13.49,1.42-6,1.93-12.76-1.09-18.36a15.55,15.55,0,0,0-14.24-7.3c-7.29.31-13.11,7.47-12.74,14.59-0.09,7.34,10.64,12.3,15.8,6.84,1.12-2.8.49-7.54-3.09-8.07a27.15,27.15,0,0,0-2.1,3l3.05,2.31c-1.75,1.34-3.59,2.94-5.94,2.86-3.19.05-6-3.93-3.84-6.71a16.83,16.83,0,0,1,11.79-6.6c3.86-.44,7.91,2.3,8.38,6.26,0.29,4.31-1.91,8.54-5,11.44-4.66,4.27-11.8,3.7-17.28,1.5-5.79-2.34-10.35-8.61-9.11-15a16.8,16.8,0,0,1,6.8-11.17,29,29,0,0,1,22.71-5c5.22,1.05,8.86,5.39,13.81,7.11,24.18,10.52,51.74,8.64,76.69,1.94,4.61-1.48,9.77-2,13.64-5.15A17.94,17.94,0,0,1,318,204.9c7.27-.76,15.13.5,21,5A14.13,14.13,0,0,1,343.84,225c-2.41,10.47-15.85,16.24-25.21,11.26-6.19-3.2-7.26-13-1.5-17.08,5.25-4.47,14.56-1.79,16.49,4.83,0.41,5.27-6.59,7.32-10.38,4.63l3.12-2.4c-1.2-2-2.92-4.21-5.55-3.75-1.6,4.13.69,9.86,5.3,10.76,5.41,1.18,11-3.73,10.59-9.24,1.1-11.74-15.74-19.72-24-11.31-8,8.26-6.39,23.09,2.32,30.28,9.61,9,26.17,7.4,34.66-2.39,6.6-6.65,7-16.74,5.58-25.46-3-13.32-12.39-24.66-24.18-31.25-1.81-1.16-4-.86-6.07-0.93-46,.2-91.93-0.25-137.87.23-8.37,4.52-15.05,11.93-19.63,20.21M293.07,217c2.32,3.52,4.65,7,7.23,10.36a33.72,33.72,0,0,1,3.44-13.44c-3.54,1.1-7.1,2.09-10.67,3.08m-75.36.1A44.49,44.49,0,0,1,219,225.2c1.72-2,3.29-4.11,4.84-6.23-2-.63-4.06-1.25-6.08-1.9M273.06,221c2.16,2.51,4.26,5.07,6.44,7.56,3.25-3.37,6-7.13,9.29-10.5-5.22,1.11-10.46,2.11-15.73,2.94m-42.68-.44c1.91,3.09,3.84,6.18,5.65,9.33,2.66-2.47,5.22-5.05,7.77-7.64-4.5-.36-9-0.95-13.42-1.69M220,230.72c4,0.05,8,0,12,0-1.78-2.92-3.58-5.84-5.24-8.84a71.84,71.84,0,0,0-6.8,8.84m33.42-8.07c1.62,1.92,3.26,3.82,5,5.63q3.13-3.17,6.29-6.3c-3.77.2-7.52,0.42-11.28,0.67m29.43,8.06c5,0.07,9.92,0,14.88.06-2.2-3.27-4.46-6.51-6.64-9.79-2.64,3.33-5.51,6.47-8.24,9.73m-41.92.05c4.76,0,9.54,0,14.31-.08-2.19-2.52-4.41-5-6.48-7.64-2.7,2.48-5.29,5.08-7.83,7.72m20.43,0c5,0,9.91.05,14.87,0-2.25-2.63-4.54-5.22-6.68-7.93-2.88,2.5-5.53,5.24-8.19,8m-43.79,3.73c-0.52,1.34-1,2.68-1.54,4,28.61,0.05,57.22-.06,85.83.05l-0.63-4c-27.88-.18-55.77,0-83.66-0.11m-10.43,13.72c-2.94,1.92-6.29,3-9.49,4.38,0.15,26.19,0,52.37.06,78.56a157.55,157.55,0,0,0,17,6.91c-0.05-32.13.17-64.27-.11-96.39-2.46,2.21-4.66,4.75-7.46,6.54m11.46-5.93c-0.08,32.32,0,64.65,0,97,5.87,1.69,11.82,3.11,17.84,4.22q0.06-50.62,0-101.23c-5.94.06-11.88,0-17.82,0m21.71,0c0,33.93,0,67.86,0,101.79,6.05,0.89,12.16,1.32,18.27,1.61,0.13-34.47,0-68.93,0-103.39q-9.15.06-18.3,0m22.17,0q0,51.66,0,103.33a164.2,164.2,0,0,0,18.41-1.12c0.62-8.12.11-16.28,0.27-24.42,0.06-24.67,0-49.34,0-74a14.12,14.12,0,0,0-.39-3.61c-6.1-.37-12.23,0-18.35-0.17m22.21,0c-0.08,33.86,0,67.71,0,101.57,5.35-.78,10.64-2,15.9-3.22q0-49.19,0-98.37c-5.28,0-10.57,0-15.85,0m19.73,0.34q-0.12,48.47,0,96.94a175.55,175.55,0,0,0,20.3-7.68q0-39.06,0-78.12a31.61,31.61,0,0,1-20.28-11.14h0Z" transform="translate(-0.01 -0.43)"/><path class="cls-1" d="M176.71,124.45c0.9-34.57,1.55-69.17,2.72-103.74,54.27,0.11,108.55,0,162.83.07,0.52,34.41,1.44,68.81,2.24,103.22q-28.77,0-57.52,0c-28.65.7-57.33-.17-86,0.52-8.09,0-16.19.05-24.29-.06m4.64-102c-0.7,5.16-.58,10.38-0.74,15.57-0.17,21-1.31,42-1.37,63-0.41,7.23-.72,14.47-0.65,21.72,17.12,0.19,34.23-.38,51.36-0.25,37.58,0.13,75.14-.45,112.72-0.26-0.21-15.41-1-30.79-1.07-46.2-0.33-17.85-1-35.67-1.21-53.51C287.37,22.45,234.36,22.57,181.35,22.47Z" transform="translate(-0.01 -0.43)"/><path class="cls-1" d="M220.35,52.39c5.81-3.87,13.55-3.19,19.7-.5,0.53-.54,1.58-1.64,2.1-2.19a67.47,67.47,0,0,1,3.17,10.91c-3.88-2-5.84-6.79-10.37-7.67-4.14-1-9.44-.94-12.21,2.83a24.21,24.21,0,0,0-.83,26.38C225.48,87.39,233.07,87,238,84c3-1.61,4.41-4.88,5.74-7.84l1.88,0.23c-1.53,3.86-3.07,8.22-7,10.31-6.13,3.45-14.84,3.84-20.19-1.28-4.28-3.91-5.47-10-5.69-15.52C212.89,63.47,214.82,56.31,220.35,52.39Zm31.54,2.7c2.73-5.82,10.7-6.81,15.65-3.26l1.7-2.8a32,32,0,0,1,1.69,7.43c-2.89-1.44-5.48-4-9-3.76-7.23-.56-7.4,10.77-1.42,12.78,3.38,1.84,7.27,3.14,9.77,6.23,3.73,4.74,2.3,12.5-2.86,15.62-4.09,2.74-9.53,2.41-13.78.22l-2,2.37a39.8,39.8,0,0,1-2.13-9c3.14,2.43,6.18,5.72,10.54,5.37,6.86,1,9-9.86,3.55-12.84-3-1.8-6.61-2.41-9.11-4.94-3.79-3.24-4-9-2.61-13.41h0Zm31.46-1.74c5.44-5,13.87-4.36,20.15-1.41l1.87-2.84a39,39,0,0,1,3.43,11.52c-3.31-2-5.2-6-9-7.26-4.77-1.69-11.1-1.31-14.2,3.19-4.4,6.78-4.24,15.82-1.41,23.17,2,6.05,10.25,8.51,15.28,4.77a11,11,0,0,0,3-10c-1.18-.93-2.48-1.72-3.71-2.58,3.24-.17,6.49-0.17,9.74-0.19,0,6.07.25,12.15-.17,18.21a21.6,21.6,0,0,1-4.22-3.7,21.94,21.94,0,0,1-16,2.62A15.35,15.35,0,0,1,277.62,78c-2.61-8.4-.87-18.49,5.73-24.61h0ZM272.9,134.64c1.08-1.19,5-1.18,6.14,0A9.84,9.84,0,0,1,272.9,134.64Zm8-.41h0Zm3,0.06c1.46-.42,4.34-1,5.19.39C287.63,135.17,284.74,135.64,283.9,134.29Zm10.35-.11c1.53-.48,4.55-0.92,5.46.53C298.21,135.34,295.11,135.67,294.25,134.18Zm7.36-.05C304.69,132.63,301.8,137.41,301.61,134.13Zm-57.76,3.23c-1-.55-5.75.16-4.16-1.38,7.11-.16,14.2.2,21.3-0.2a4.44,4.44,0,0,1,3.84,1.49,53.2,53.2,0,0,1-5.65-.53c-4.77,1-9.58.07-14.36-.19l0.08,1.95a38.5,38.5,0,0,1,9.29,0c-2.92,1.19-6.12.72-9.18,0.77a9.08,9.08,0,0,0-.54,2.52q-2.36.27-4.71,0.48c1.07-1.45,2.91-1.66,4.49-2.26-2.69-.27-6-1.44-8.3.51l3.19,1.25c-3.76-.05-7.53.1-11.27-0.29a17.06,17.06,0,0,1,7-.66l0.32-.84-2.45-1.82c3.5,0.29,7,.24,10.5.83,0.16-.4.49-1.21,0.65-1.62h0Zm21.4-1.15c4.25-1.31,8.59.59,12.85-.3,4.19-.55,8.42,1,12.56-0.32a6.59,6.59,0,0,0-2.46,2.21c2.65,1.11,5.64,0,8.44.11-2.15,2.34-5.57,1.14-8.31,1.16,0.06,0.46.19,1.37,0.26,1.83a24,24,0,0,1,7.18.13,15.87,15.87,0,0,1-10.93-.34c-3.59,1.19-7.41.76-11.11,1.06a26.62,26.62,0,0,0,3.24-3.39c3.22,0,6.48,0,9.58,1l0.66-1.2,0.09-.71c-7.35-.83-14.77-0.37-22.14-0.27,0-.24.07-0.71,0.09-0.95m12.7,3.11C276.34,142.26,281.37,139.53,278,139.32Z" transform="translate(-0.01 -0.43)"/><path class="cls-1" d="M291.26,135.69a21,21,0,0,0,5.59.47c5.14-.73,10.31.3,15.47-0.33a10,10,0,0,1-7.13,1.33c-4.53-.66-9.08.22-13.62,0.21l-0.31-1.68h0Zm21,0.34c1.37-.44,4-0.54,4.72.85C315.63,137.42,312.91,137.49,312.26,136Zm-58.92,3.19a17.48,17.48,0,0,1,11.51-.3A65.11,65.11,0,0,1,253.34,139.22Zm11.86-.86c3.23,0.48,7.32-1.46,10.06.75-3.3.22-6.6,0.21-9.9,0.32Zm31.56-.09c3.61,0.23,7.3-.51,10.84.43-1.43.69-3.87-.32-4.75,1.29,0.69,1.33,2.55,1.11,3.73,1.79-3.59-.07-7.18-0.16-10.76.1l3.64-1.89-2.7-1.72m3.38,0.79-0.47.79C300.31,142.38,302.37,139.07,300.14,139.06Zm-53.72,1.87c0.73-.8,3.17-0.74,3,0.66C248.74,142.47,246.25,142.37,246.42,140.93Zm5.08,0.67c0.41-1.43,3.09-1.38,4.18-.64C255.27,142.43,252.6,142.29,251.5,141.6Zm5.91-.65a2.37,2.37,0,0,1,3.08.09C260.79,142.6,257.18,142.47,257.41,140.95Zm6.06,0.1a2.4,2.4,0,0,1,3.1-.12C266.86,142.45,263.26,142.59,263.47,141Zm5-.12c0.76-.77,3.23-0.75,3.13.66C270.8,142.38,268.31,142.36,268.44,140.93Zm-63.37,3.38c0.17-.44.51-1.32,0.67-1.76,3.37,1.85,7.51-.71,10.6,1.53A100.89,100.89,0,0,1,205.07,144.31Zm12.06-.05c0-.44.07-1.32,0.1-1.75,3.18,1,6.89-.06,9.77,1.79-3.29.08-6.58-.06-9.87,0h0Zm11.32-1.64c3.52,0.61,7.1.54,10.65,1-3.51,1-7.2.61-10.8,0.82l0.15-1.78h0ZM238.57,144A21.07,21.07,0,0,1,251,144,62.21,62.21,0,0,1,238.57,144Zm12.85,0.33c0-.42,0-1.24.05-1.66,3.5,0.62,7.16.19,10.58,1.27A96.57,96.57,0,0,1,251.42,144.33Zm11.63-1.13q4.77,0,9.54,0l0.13,1.14c-3.24-.05-6.47-0.05-9.71-0.05l0-1.06h0Zm10.25,0.74c3.28-1.12,6.81-.64,10.19-1.26l0.34,1.77c-3.51-.21-7-0.07-10.53-0.51h0Z" transform="translate(-0.01 -0.43)"/><path class="cls-2" d="M251,12.56c3.45-2.26,6.9-4.53,10.25-6.93,3.44,2.41,7,4.66,10.43,7.06-6.9.27-13.78-.45-20.68-0.13h0ZM221.31,9.62a66.42,66.42,0,0,0,8.68,3c-3.71-.23-7.43-0.12-11.14-0.08l2.46-2.92h0Zm72.27,3c2.29-1.16,4.66-2.12,7-3.05q1.44,1.6,2.91,3.2C300.22,12.75,296.9,12.77,293.58,12.65Zm-80.65,2.63c6-1.35,12.09-1.17,18.16-.93,4.91,0.5,9.88,1.72,14.81.63,6.94-1.46,14.06-.42,21.08-0.5,6.06-.4,12,1.78,18,0.95a70.65,70.65,0,0,1,24,0c11,0.22,22-.09,33,0.11,1.39-.07,2.39,1.05,3.55,1.64-0.17,11,2.06,21.82,1.82,32.8,0.15,25.7,1.33,51.36,1.37,77.06a3.29,3.29,0,0,1-3.69,3.68c-56,.06-112,0.07-168-0.28-2.47.14-5.35-1.68-4.83-4.45,0-15,.35-30,0.6-45,1-13.67.1-27.42,1.13-41.08,1.56-7.73,0-15.78,1.76-23.43,2.47-2.76,6.91-2,10.3-2,8.9,1.41,18,.83,26.93.76M176.71,124.45c8.1,0.11,16.2,0,24.29.06,28.65-.69,57.33.18,86-0.52q28.76,0,57.52,0c-0.8-34.41-1.72-68.81-2.24-103.22-54.28-.1-108.56,0-162.83-0.07-1.17,34.57-1.82,69.17-2.72,103.74h0Z" transform="translate(-0.01 -0.43)"/><path class="cls-2" d="M181.35,22.47c53,0.1,106,0,159,.06,0.18,17.84.88,35.66,1.21,53.51,0,15.41.86,30.79,1.07,46.2-37.58-.19-75.14.39-112.72,0.26-17.13-.13-34.24.44-51.36,0.25-0.07-7.25.24-14.49,0.65-21.72,0.06-21,1.2-42,1.37-63,0.16-5.19,0-10.41.74-15.57m39,29.92c-5.53,3.92-7.46,11.08-7.59,17.55,0.22,5.55,1.41,11.61,5.69,15.52,5.35,5.12,14.06,4.73,20.19,1.28,3.9-2.09,5.44-6.45,7-10.31l-1.88-.23c-1.33,3-2.72,6.23-5.74,7.84-4.92,3-12.51,3.35-16.08-1.89a24.21,24.21,0,0,1,.83-26.38C225.51,52,230.81,52,235,52.94c4.53,0.88,6.49,5.66,10.37,7.67a67.47,67.47,0,0,0-3.17-10.91c-0.52.55-1.57,1.65-2.1,2.19-6.15-2.69-13.89-3.37-19.7.5m31.54,2.7c-1.39,4.42-1.18,10.17,2.61,13.41,2.5,2.53,6.16,3.14,9.11,4.94,5.4,3,3.31,13.85-3.55,12.84-4.36.35-7.4-2.94-10.54-5.37a39.8,39.8,0,0,0,2.13,9l2-2.37c4.25,2.19,9.69,2.52,13.78-.22a11,11,0,0,0,2.86-15.62c-2.5-3.09-6.39-4.39-9.77-6.23-6-2-5.81-13.34,1.42-12.78,3.47-.27,6.06,2.32,9,3.76A32,32,0,0,0,269.24,49l-1.7,2.8c-5-3.55-12.92-2.56-15.65,3.26m31.46-1.74c-6.6,6.12-8.34,16.21-5.73,24.61a15.35,15.35,0,0,0,10.53,10.88,21.94,21.94,0,0,0,16-2.62,21.6,21.6,0,0,0,4.22,3.7c0.42-6.06.19-12.14,0.17-18.21-3.25,0-6.5,0-9.74.19,1.23,0.86,2.53,1.65,3.71,2.58a11,11,0,0,1-3,10c-5,3.74-13.33,1.28-15.28-4.77-2.83-7.35-3-16.39,1.41-23.17,3.1-4.5,9.43-4.88,14.2-3.19,3.81,1.31,5.7,5.21,9,7.26a39,39,0,0,0-3.43-11.52l-1.87,2.84c-6.28-3-14.71-3.58-20.15,1.41h0Z" transform="translate(-0.01 -0.43)"/><path class="cls-2" d="M348.8,39.86c5.38,1.35,11,0,16.39,1.14a39.64,39.64,0,0,0,7.78.58c1.51,5.31,3.88,10.32,5.44,15.62,0.88,2.23,1.59,5.29,4.28,5.94,6.51,1.94,13.12,3.56,19.72,5.18,1,5.82,1.7,11.7,2.55,17.54,0.52,2.23.7,5.05,3.11,6.11,5.68,3.1,11.86,5.14,17.56,8.23-0.4,5.28.43,10.67-.82,15.87-0.62,3.14-.92,7.05,2.1,9.08,4.89,3.91,9.94,7.62,14.81,11.56-1.6,5.79-3.29,11.54-5,17.31-0.48,2.36-.79,5.23,1.17,7,4,4.72,7.77,9.63,12,14.16a133.49,133.49,0,0,1-6.8,12.85c-1.59,2.65-3.41,5.66-2.44,8.88,2.46,6.22,6.17,11.82,9.25,17.74-4.15,4.94-8.15,10-12.47,14.83-1.54,1.74-1,4.34-.7,6.43,1.72,5.85,3.39,11.71,5.07,17.57-5.42,4-10.57,8.33-15.89,12.46-2.16,1.62-1.43,4.71-1.28,7,1.41,5.5.61,11.2,1,16.8-6.45,3.17-13,6.21-19.27,9.68-2.57,7.06-1.86,15-4.09,22.21-3,1.46-6.65,1.66-9.85,2.84-3.94,1.44-8.43,1.51-12,3.87-2.54,5.63-4.43,11.54-6.6,17.32-0.6,1.25-.66,3.29-2.36,3.57-6.76.78-13.68-.52-20.38,0.62-5.65,5.11-8.43,12.6-12.94,18.67-5.31-1.36-10.79-1.92-16.17-3-2.67-.1-6-0.92-8.07,1.3-4.6,4.5-9.09,9.13-13.67,13.66-4.78-2.21-9.72-4-14.6-6-3.13-1.28-7-1.83-10,.16-5,3.16-9.83,6.47-14.66,9.83-4.85-3.37-9.74-6.7-14.72-9.86-3.18-2.11-7.26-1.27-10.56.11-4.64,1.94-9.38,3.66-13.95,5.79-4.59-4.53-9.07-9.16-13.67-13.67-1.77-2-4.69-1.42-7.06-1.4-5.77.8-11.49,1.92-17.17,3.19a194.85,194.85,0,0,0-11.94-18.88c-7.3-.85-14.71,0-22-0.47-3.07-6.62-4.66-13.83-7.94-20.36a4.41,4.41,0,0,0-3.27-2.36c-6.36-1.51-12.67-3.17-19-4.65-0.54-5-1.45-10-2.06-15-0.25-2.55-.58-5.26-2-7.46-6.24-3.47-12.75-6.43-19.12-9.65-0.75-7.34,1.89-14.51.85-21.84-0.13-1.38-1.4-2.18-2.3-3-4.92-3.78-9.68-7.75-14.61-11.51q2.43-8.25,4.81-16.52c0.37-2.62.95-5.86-1.14-7.93-3.91-4.63-7.64-9.41-11.71-13.89,2.75-5.51,5.56-11,8.27-16.49a7.61,7.61,0,0,0,0-7.15A164.65,164.65,0,0,0,72,175.25,117.92,117.92,0,0,0,85.41,159c0.48-7.8-3.6-15-5-22.52,3.32-1.92,6.14-4.54,9.15-6.88,2.56-2.19,5.58-3.91,7.54-6.71,1.62-7.38-1.39-14.74-.63-22.18,5.82-2.9,11.7-5.71,17.46-8.73,2.29-1.08,2.77-3.79,3.29-6,0.62-5.9,1.69-11.74,2.37-17.62,6.44-1.74,13-3,19.38-5,3-.79,3.86-4.12,5-6.59,1.73-5.13,3.63-10.2,5.5-15.28a33,33,0,0,0,6.44-.3c5.3-1.22,10.76-.43,16.13-0.8a85.07,85.07,0,0,0-.35,10.71A170.2,170.2,0,0,0,93.15,221.48,170.6,170.6,0,0,0,220.79,361.23a170.85,170.85,0,0,0,171.35-55.14C417.7,276.27,432.47,237.3,432.6,198a168.3,168.3,0,0,0-26.68-93.89A173.09,173.09,0,0,0,348.82,49c0-3,0-6.09,0-9.13h0Z" transform="translate(-0.01 -0.43)"/><path class="cls-2" d="M349.26,55.59A165.62,165.62,0,0,1,410,122a164.83,164.83,0,0,1-10.88,166.12,170,170,0,0,1-31.38,34.6A165.21,165.21,0,0,1,123.13,106.06a167.46,167.46,0,0,1,48.38-48.53c0.08,4.13-.08,8.25-0.27,12.38a155.53,155.53,0,0,0-46.37,52.89,155.26,155.26,0,0,0,2.65,150.77,155.31,155.31,0,1,0,222-205.91c0-4-.18-8-0.22-12.07h0Z" transform="translate(-0.01 -0.43)"/><path class="cls-2" d="M349.75,74.31a151.28,151.28,0,0,1,54,72.63,149,149,0,0,1-38,156.82c-10.85,10.71-23.63,19.27-37.09,26.33-0.11-25.4,0-50.79,0-76.19,8.91-.5,17.83-3.68,24.4-9.84s11-14.93,10.79-24c0.34-10.55-5.22-20.25-12-27.95a62,62,0,0,0-18.35-13.77c0.81-1.61,1.59-3.22,2.37-4.83q27.54,0,55.09,0c3.21,0.24,7.06-1.91,6.9-5.5,0.36-1.39-1.31-1.94-2-2.79-14-11-28-21.83-41.83-33.05a16.92,16.92,0,0,0-3.87-1.7c1.2-7.08.06-14.28,0.26-21.41C350.26,97.46,349.43,85.89,349.75,74.31ZM112.16,196c-1-46.2,22.2-91.72,59-119.36-0.23,16.46-.9,32.91-0.92,49.38-0.22,1.79.91,3.23,1.8,4.65-4.06.08-6.71,3.32-9.69,5.58q-19.62,15.43-39.22,30.86c0.43,3.46,3.07,6.67,6.83,6.33,18.23,0.06,36.47,0,54.7,0,0.7,1.67,1.41,3.33,2.12,5-13.51,6.46-25,18.11-29.32,32.64-1.49,5.46-2.61,11.29-1.36,16.92,2.28,11.68,11.93,21.25,23.28,24.4,4.84,1.36,9.93,1.17,14.89.65-0.06,25.42,0,50.84,0,76.26a149.88,149.88,0,0,1-62.12-58.52C119.05,248.28,111.64,222.19,112.16,196Z" transform="translate(-0.01 -0.43)"/><path class="cls-2" d="M167.48,134.51c1-.74,2.1-1.76,3.48-1.7,5.63-.19,11.27,0,16.91,0-5.29,4.79-10.81,9.35-15.83,14.44a11.87,11.87,0,0,0,4.91,1.26c10.34,0.14,20.67-.45,31-0.31,4.69,0.27,9.35-.51,14-0.42,5.61,1.17,11.27-.11,16.91,0,1.69,0.2,3.39.39,5.09,0.52,3.35-.13,6.71-0.12,10.06-0.1,3,0,6,0,9,0q4,0.06,7.93,0c5.68-.09,11.37.2,17,0.07l3.87-.49c4.65,1,9.39-.21,14.07.44,2.72,0.06,5.45.06,8.17,0,7.29-.14,14.61.38,21.88-0.38,5-.44,10.25,1.45,15.13-0.59-4.58-5.2-9.79-9.79-14.66-14.71,4.86,0,9.75-.28,14.61.08,2.48,1.07,4.31,3.19,6.42,4.81,12.16,9.75,24.59,19.17,36.67,29-41.31.15-82.62-.07-123.92,0.11l-0.15-1.24c9.93-.27,19.88.24,29.81-0.29-0.62-4.26-2.23-8.28-3.78-12.27-0.48-1.33-1.41-2.88-3.07-2.71-22-.18-44,0-66,0.15-2.29,1.61-2.43,4.86-3.61,7.23-0.74,3-4,6.81-.32,9.15-31.92-.26-63.86.09-95.78-0.17,13.14-10.91,26.87-21.09,40.09-31.9h0Z" transform="translate(-0.01 -0.43)"/><path class="cls-2" d="M186.73,136.08c3.53-2.78,8.61.14,12.2-2.86-0.16.4-.48,1.2-0.65,1.6,2.4,0,4.81,0,7.21,0l0,1.36a48.17,48.17,0,0,1-8.57-.57c0.1,0.29.29,0.87,0.38,1.16l1.6,1.36c-4.24.64-8.53,0.26-12.8,0.41l0.13-1.24c2.83-.4,6.63.86,8.86-1.05-2.8-.2-5.6,0-8.39-0.15h0Z" transform="translate(-0.01 -0.43)"/><path class="cls-2" d="M206.64,134.58l3-1.56c-0.08.46-.25,1.39-0.33,1.85,3.54-.1,7.33.42,10.5-1.56l-0.59,1.51c3.91,0.07,8,.3,11.54-1.62-0.14.42-.41,1.27-0.54,1.7,10.42-.67,20.81.46,31.24-0.12l0.48-2.44c0.14,0.65.42,1.95,0.57,2.6,2.85-.12,5.71-0.28,8.56-0.59,2.15-1.06,4.59-.89,6.91-0.87,5,0.25,10.22-.73,14.88,1.62l-0.49-1.67c4.08,0,8.16.1,12.25,0l-0.36,1.49a190.53,190.53,0,0,1,20.42-.12c0-.4-0.15-1.19-0.19-1.59l1-.13c0,0.45-.14,1.33-0.19,1.77,4.08,0,8.15-.07,12.22-0.38-6,4.06-13.45,0-20.09,1.53,1.16,1.36,2.33,2.73,3.51,4.09-2,.6-1.5,2.08-0.89,3.52l4.16-.14c0.45,1.46.9,2.93,1.34,4.4-1.08-.79-2.15-1.59-3.2-2.41-3,0-6.08,0-9.11-.16,0.13,0.47.38,1.42,0.51,1.89l-2,.14L310.38,144c2.63-.11,5.27-0.26,7.9-0.42a27.74,27.74,0,0,0-.73-2.71c-1.67-.21-3.32-0.44-5-0.7,2.08-.49,4.34-0.75,6.08-2.15a31.94,31.94,0,0,1-10.73,0l2,2.44-3.32-.09a6.4,6.4,0,0,1,2.31,3.53l2.39,2.48c-3.88.28-7.9-.41-11.64,1-0.24-1.06-.49-2.12-0.73-3.17a34.46,34.46,0,0,0,7.93.14c-0.06-.44-0.19-1.32-0.26-1.75-3.42,1-7,1-10.51,1.19-3.4-.3-6.8-0.26-10.2-0.3,0.06,0.29.17,0.87,0.23,1.16,4.2-.08,8.4,0,12.61-0.07l-0.06,2a123.16,123.16,0,0,0-12.89.21c-19.86-.48-39.78-0.29-59.65-0.09a161.76,161.76,0,0,0-17.89.05c-4.47-.4-9-0.08-13.44-0.37,1.68-3.19,5.67-1.72,8.51-2,0.45-1,.89-2,1.36-2.95-0.58-.4-1.72-1.2-2.3-1.59,3-.09,6.18-0.81,8.89.77l-4.84.26-0.09,1c2.84,0,5.67-.08,8.51,0l-0.18-.44c-0.88-2.88,4.44-1.79,6.06-2.27,0.11,0.25.34,0.73,0.45,1q-1.29,1.58-3.85.82l0.06,1a32.51,32.51,0,0,1,9.34.53c0.07-.3.19-0.88,0.26-1.18l-2.8-.06c2-2,4.83-1.92,7.44-1.94v-1.11c-2.73.15-5.45,0.33-8.17,0.5l0-1.52c5-.49,10,0.56,15.08,0l-1.27-1.18c-4.43.57-8.86-.56-13.27,0.16-2.35.3-4.68-.26-7-0.36q2.26,1.26,4.56,2.49c-3,.11-6,0-9.05,0a12.94,12.94,0,0,1,.39,2.48l-2.15-1.15-0.51.08c-0.05-1.06-.1-2.13-0.13-3.19,2.48,0.27,5,.41,7.47.47l-0.68-1.28c-3.38.62-6.8,0.14-10.2,0.3l2.13,0.67c0.14,0.49.43,1.46,0.58,1.95-3-.16-6.13.32-8.94-1l5.07-.44c0.4-.85.8-1.7,1.19-2.55m66.26,0.06a9.84,9.84,0,0,0,6.14,0c-1.11-1.19-5.06-1.2-6.14,0m8-.41h0m3,0.06c0.84,1.35,3.73.88,5.19,0.39-0.85-1.36-3.73-.81-5.19-0.39m10.35-.11c0.86,1.49,4,1.16,5.46.53-0.91-1.45-3.93-1-5.46-.53m7.36-.05c0.19,3.28,3.08-1.5,0,0m-57.76,3.23c-0.16.41-.49,1.22-0.65,1.62-3.48-.59-7-0.54-10.5-0.83l2.45,1.82-0.32.84a17.06,17.06,0,0,0-7,.66c3.74,0.39,7.51.24,11.27,0.29l-3.19-1.25c2.28-1.95,5.61-.78,8.3-0.51-1.58.6-3.42,0.81-4.49,2.26q2.36-.21,4.71-0.48a9.08,9.08,0,0,1,.54-2.52c3.06-.05,6.26.42,9.18-0.77a38.5,38.5,0,0,0-9.29,0l-0.08-1.95c4.78,0.26,9.59,1.18,14.36.19a53.2,53.2,0,0,0,5.65.53,4.44,4.44,0,0,0-3.84-1.49c-7.1.4-14.19,0-21.3,0.2-1.59,1.54,3.2.83,4.16,1.38m21.4-1.15c0,0.24-.06.71-0.09,0.95,7.37-.1,14.79-0.56,22.14.27l-0.09.71-0.66,1.2c-3.1-1-6.36-1-9.58-1a26.62,26.62,0,0,1-3.24,3.39c3.7-.3,7.52.13,11.11-1.06a15.87,15.87,0,0,0,10.93.34,24,24,0,0,0-7.18-.13c-0.07-.46-0.2-1.37-0.26-1.83,2.74,0,6.16,1.18,8.31-1.16-2.8-.12-5.79,1-8.44-0.11a6.59,6.59,0,0,1,2.46-2.21c-4.14,1.34-8.37-.23-12.56.32-4.26.89-8.6-1-12.85,0.3m26-.52,0.31,1.68c4.54,0,9.09-.87,13.62-0.21a10,10,0,0,0,7.13-1.33c-5.16.63-10.33-.4-15.47,0.33a21,21,0,0,1-5.59-.47m21,0.34c0.65,1.46,3.37,1.39,4.72.85-0.72-1.39-3.35-1.29-4.72-.85m-58.92,3.19a65.11,65.11,0,0,0,11.51-.3,17.48,17.48,0,0,0-11.51.3m11.86-.86,0.16,1.07c3.3-.11,6.6-0.1,9.9-0.32-2.74-2.21-6.83-.27-10.06-0.75m31.56-.09,2.7,1.72-3.64,1.89c3.58-.26,7.17-0.17,10.76-0.1-1.18-.68-3-0.46-3.73-1.79,0.88-1.61,3.32-.6,4.75-1.29-3.54-.94-7.23-0.2-10.84-0.43m-50.34,2.66c-0.17,1.44,2.32,1.54,3,.66,0.13-1.4-2.31-1.46-3-.66m5.08,0.67c1.1,0.69,3.77.83,4.18-.64-1.09-.74-3.77-0.79-4.18.64m5.91-.65c-0.23,1.52,3.38,1.65,3.08.09a2.37,2.37,0,0,0-3.08-.09m6.06,0.1c-0.21,1.54,3.39,1.4,3.1-.12a2.4,2.4,0,0,0-3.1.12m5-.12c-0.13,1.43,2.36,1.45,3.13.66,0.1-1.41-2.37-1.43-3.13-.66m-63.37,3.38a100.9,100.9,0,0,0,11.27-.23c-3.09-2.24-7.23.32-10.6-1.53-0.16.44-.5,1.32-0.67,1.76m12.06-.05c3.29,0,6.58.12,9.87,0-2.88-1.85-6.59-.82-9.77-1.79,0,0.43-.08,1.31-0.1,1.75m11.32-1.64-0.15,1.78c3.6-.21,7.29.22,10.8-0.82-3.55-.42-7.13-0.35-10.65-1M238.57,144A62.21,62.21,0,0,0,251,144a21.07,21.07,0,0,0-12.43,0m12.85,0.33a96.57,96.57,0,0,0,10.63-.39c-3.42-1.08-7.08-.65-10.58-1.27,0,0.42,0,1.24-.05,1.66M263,143.2l0,1.06c3.24,0,6.47,0,9.71.05l-0.13-1.14q-4.77,0-9.54,0m10.25,0.74c3.49,0.44,7,.3,10.53.51l-0.34-1.77c-3.38.62-6.91,0.14-10.19,1.26h0Z" transform="translate(-0.01 -0.43)"/><path class="cls-2" d="M320.35,137.39c1.76-.75,4.93-0.75,6.22.55C324.8,138.41,321.39,139,320.35,137.39Zm8.11,0.07c1.4-.32,2,0.21,1.64,1.59C328.72,139.4,328.17,138.86,328.46,137.46Zm-128.73.28h0ZM200.2,140c0.8-1.27,1.53-1.26,2.17,0C201.55,141.27,200.82,141.26,200.2,140Zm23.19-1c1,0.74,1,1.52-.09,2.35Q221.39,140.43,223.39,139ZM278,139.32C281.37,139.53,276.34,142.26,278,139.32Zm22.19-.26c2.23,0,.17,3.32-0.47.79Zm10.91,0.28C314.47,139.67,309.35,142.21,311.05,139.34Zm10.8,0.13c1.38-.43,1.92.08,1.6,1.5C322.08,141.38,321.55,140.88,321.85,139.47Zm-140.4.83h0Zm13.8-.42a2.76,2.76,0,0,1,3.3,0C198.67,141.33,195.08,141.35,195.25,139.88Zm-14.61,1.27a11.74,11.74,0,0,1-2.53,3.77c5.81-1,11.77.33,17.54-.91-0.55,1-1.09,2.05-1.63,3.08-4.93-1.17-10-.41-15.06-0.68-0.73-.43-1.48-0.82-2.25-1.19-0.12.67-.35,2-0.47,2.67-0.61-.24-1.83-0.72-2.43-1a64.9,64.9,0,0,1,6.83-5.77h0Z" transform="translate(-0.01 -0.43)"/><path class="cls-2" d="M180.09,143.3c1.12-.83,2.2-2.16,3.79-1.79,6.33-.06,12.65.22,19,0.2,0,0.28-.06.83-0.09,1.11C195.29,143.8,187.64,143.5,180.09,143.3Zm136.7-.24c-2.66-.19-6.9,1.82-8.07-1.63a44.35,44.35,0,0,1,8,.77c0,0.21,0,.65,0,0.86h0ZM227,151.34c22.38-.43,44.77-0.42,67.15-0.26,1.73,4.31,3.43,8.65,4.78,13.1-25.54.12-51.08,0.49-76.63,0.3,1.48-4.42,3.24-8.72,4.7-13.14h0ZM124.67,168.55c1.44-.14,2.88-0.24,4.33-0.28,37.1-.09,74.2.08,111.3-0.08,0.13,1.21.27,2.42,0.42,3.64-34.58-.18-69.17-0.05-103.75-0.07-4.29-.08-9.49,1-12.3-3.21h0Zm116.4,0c12.86-.62,25.75-0.07,38.62-0.29-0.25,1.34.23,3.4-1.75,3.4-11.3.25-22.64,0.12-33.95,0.06C242.08,171.9,241.49,170,241.07,168.52Zm39.52-.14c29.78-.29,59.57,0,89.35-0.13,8.84,0.09,17.68-.18,26.51.16-2.25,4.38-7.48,3.28-11.52,3.35-34.76,0-69.52-.09-104.28.05,0-.85,0-2.57-0.06-3.43h0Zm-91.68,5.16c47.58-.09,95.16,0,142.74,0-0.85,1.9-1.69,3.81-2.5,5.73-45.9.08-91.79-.09-137.68,0.08Q190.1,176.46,188.91,173.54Zm-21.43,29.87c4.58-8.28,11.26-15.69,19.63-20.21C233,182.72,279,183.17,325,183c2,0.07,4.26-.23,6.07.93,11.79,6.59,21.23,17.93,24.18,31.25,1.41,8.72,1,18.81-5.58,25.46C341.16,250.4,324.6,252,315,243c-8.71-7.19-10.33-22-2.32-30.28,8.29-8.41,25.13-.43,24,11.31,0.37,5.51-5.18,10.42-10.59,9.24-4.61-.9-6.9-6.63-5.3-10.76,2.63-.46,4.35,1.77,5.55,3.75l-3.12,2.4c3.79,2.69,10.79.64,10.38-4.63-1.93-6.62-11.24-9.3-16.49-4.83-5.76,4.12-4.69,13.88,1.5,17.08,9.36,5,22.8-.79,25.21-11.26A14.13,14.13,0,0,0,339,209.93c-5.92-4.53-13.78-5.79-21-5a17.94,17.94,0,0,0-9.34,3.72c-3.87,3.17-9,3.67-13.64,5.15-25,6.7-52.51,8.58-76.69-1.94-4.95-1.72-8.59-6.06-13.81-7.11a29,29,0,0,0-22.71,5,16.8,16.8,0,0,0-6.8,11.17c-1.24,6.39,3.32,12.66,9.11,15,5.48,2.2,12.62,2.77,17.28-1.5,3.09-2.9,5.29-7.13,5-11.44-0.47-4-4.52-6.7-8.38-6.26a16.83,16.83,0,0,0-11.79,6.6c-2.16,2.78.65,6.76,3.84,6.71,2.35,0.08,4.19-1.52,5.94-2.86l-3.05-2.31a27.15,27.15,0,0,1,2.1-3c3.58,0.53,4.21,5.27,3.09,8.07-5.16,5.46-15.89.5-15.8-6.84-0.37-7.12,5.45-14.28,12.74-14.59a15.55,15.55,0,0,1,14.24,7.3c3,5.6,2.51,12.37,1.09,18.36-1.29,5.51-4.41,11-9.73,13.49-6.28,3-13.65,1.46-19.66-1.44-8.09-3.9-15.37-10.81-17.48-19.79-2.07-7.8.28-16.05,4-23h0Z" transform="translate(-0.01 -0.43)"/><path class="cls-2" d="M293.07,217c3.57-1,7.13-2,10.67-3.08a33.72,33.72,0,0,0-3.44,13.44C297.72,224,295.39,220.49,293.07,217Zm-75.36.1c2,0.65,4.05,1.27,6.08,1.9-1.55,2.12-3.12,4.24-4.84,6.23a44.49,44.49,0,0,0-1.24-8.13h0ZM273.06,221c5.27-.83,10.51-1.83,15.73-2.94-3.24,3.37-6,7.13-9.29,10.5C277.32,226.05,275.22,223.49,273.06,221Zm-42.68-.44c4.45,0.74,8.92,1.33,13.42,1.69-2.55,2.59-5.11,5.17-7.77,7.64C234.22,226.72,232.29,223.63,230.38,220.54ZM220,230.72a71.84,71.84,0,0,1,6.8-8.84c1.66,3,3.46,5.92,5.24,8.84-4,0-8,.05-12,0h0Zm33.42-8.07c3.76-.25,7.51-0.47,11.28-0.67q-3.16,3.13-6.29,6.3C256.71,226.47,255.07,224.57,253.45,222.65Zm29.43,8.06c2.73-3.26,5.6-6.4,8.24-9.73,2.18,3.28,4.44,6.52,6.64,9.79C292.8,230.72,287.84,230.78,282.88,230.71Zm-41.92.05c2.54-2.64,5.13-5.24,7.83-7.72,2.07,2.62,4.29,5.12,6.48,7.64C250.5,230.79,245.72,230.74,241,230.76Zm20.43,0c2.66-2.72,5.31-5.46,8.19-8,2.14,2.71,4.43,5.3,6.68,7.93-5,.08-9.92.05-14.87,0h0Zm-43.79,3.73c27.89,0.15,55.78-.07,83.66.11l0.63,4c-28.61-.11-57.22,0-85.83-0.05C216.57,237.14,217.08,235.8,217.6,234.46Zm-10.43,13.72c2.8-1.79,5-4.33,7.46-6.54,0.28,32.12.06,64.26,0.11,96.39a157.55,157.55,0,0,1-17-6.91c0-26.19.09-52.37-.06-78.56,3.2-1.37,6.55-2.46,9.49-4.38h0Zm11.46-5.93c5.94,0,11.88,0,17.82,0q0,50.61,0,101.23c-6-1.11-12-2.53-17.84-4.22C218.62,306.9,218.55,274.57,218.63,242.25Zm21.71,0q9.15,0.08,18.3,0c0,34.46.08,68.92,0,103.39-6.11-.29-12.22-0.72-18.27-1.61C240.36,310.08,240.31,276.15,240.34,242.22Zm22.17,0c6.12,0.16,12.25-.2,18.35.17a14.12,14.12,0,0,1,.39,3.61c-0.08,24.67,0,49.34,0,74-0.16,8.14.35,16.3-.27,24.42a164.19,164.19,0,0,1-18.41,1.12q0-51.66,0-103.33h0Zm22.21,0c5.28,0,10.57,0,15.85,0q0,49.18,0,98.37c-5.26,1.27-10.55,2.44-15.9,3.22,0-33.86,0-67.71,0-101.57h0Zm19.73,0.34a31.61,31.61,0,0,0,20.28,11.14q0,39.06,0,78.12a175.54,175.54,0,0,1-20.3,7.68q-0.06-48.46,0-96.94h0Z" transform="translate(-0.01 -0.43)"/><path class="cls-1" d="M469.9,220.88l2.41-1.39c7,5.51,11.39,13.89,13.78,22.37,2.32,9.58.73,20.73-6.54,27.86,1,5.85.78,11.79,0.61,17.7,5.2-2.59,10-6.27,15.79-7.42,7.89-1.62,16.48-2.56,24.13.6-1.6,6.83-7,12-12.37,16-8.58,6.15-19.85,7.63-30.06,5.76-1.89,7.78-5.43,15-8,22.54,8.22-4.07,17.57-4.39,26.5-3.15A34.49,34.49,0,0,1,510.12,327c-4,7.73-12.47,12.19-20.58,14.43-9.23,1.66-19.44,1-27.48-4.26A159.08,159.08,0,0,1,445,358c-2.26,2.32-4.71,4.48-6.56,7.17,4.48-.83,8.93-2.11,13.54-1.92,7.5-.27,14.78,2.17,21.46,5.37a25.06,25.06,0,0,1,7.19,5.6c-11.67,12.46-32.56,12.89-46.15,3.34a8.49,8.49,0,0,1-3.61-6.52c-6.3,4.33-12.33,9.08-19,12.83-2.23,1.44-5.13,2.32-6.32,4.91,12.22,1.27,22.67,9.12,29.78,18.77a16.35,16.35,0,0,1,2.6,5.8C429,417.06,418.64,416,410,412c-7.42-4.08-14.53-10-17.46-18.15-17,6.82-35.19,12-53.67,11.27a4.51,4.51,0,0,1,4-1.8,120.52,120.52,0,0,0,31.74-5.19c-4.49-6.09-4.5-14.11-3.37-21.26,2-9.94,7.7-18.88,15.17-25.61l3,0c4.11,7.48,5.09,16.37,3.68,24.71-1.39,6.68-5.45,12.29-8.47,18.28,4-.75,7.6-2.59,11.18-4.4a130.09,130.09,0,0,0,22.32-12.46c-7.72-7.47-8.67-19.33-7-29.38,1.43-6.07,2.88-12.69,7.6-17.14a36,36,0,0,1,9.35,22.15c0.33,6.65-2,13-3.29,19.39,9.43-6.76,18.31-14.6,25.28-23.93-8.16-3.57-13-12.1-15.32-20.33-1.79-8.91-2.45-18.83,1.69-27.21,7.47,3.13,13.14,9.7,16.69,16.84,3.49,6.72,3.49,14.47,3.69,21.85a99.86,99.86,0,0,0,16.81-34.47c-9-.14-16.26-6.57-21.44-13.33-5.13-7.85-8.74-17.19-7.9-26.71,8.66,0.16,16.59,5,22.35,11.23,4.13,4.2,6.46,9.72,8.62,15.11,1.75-.88,1.52-2.9,1.69-4.49a97.79,97.79,0,0,0-.46-16.94c-7.12-2.72-10-10.79-11.63-17.61-1.53-10.64-.06-22,5-31.57h0ZM46.16,222.21l2.64,0c4.3,6.06,5.62,13.63,6.47,20.86,1,8.59-.78,17.65-5.89,24.73a16,16,0,0,1-6.06,4.81c-0.39,7.32-.74,14.8,1.06,22,3-5.91,5-12.59,10-17.24,5.72-5.57,13.21-10.48,21.48-10.27,0.71,14.63-6.72,29.66-19.3,37.37-2.89,1.85-6.29,2.54-9.64,3a109.08,109.08,0,0,0,14.41,30.09,27.29,27.29,0,0,0,2.83,3.06c0.28-3.8.08-7.62,0.52-11.4a37.11,37.11,0,0,1,13.91-23.58A14.93,14.93,0,0,1,84.18,303c2.56,5,3.14,10.56,2.93,16,0.43,12.09-4.85,25.48-15.84,31.51a135.24,135.24,0,0,0,24.95,22.84C95.21,367.57,93,362,93,356a37.69,37.69,0,0,1,6.44-20.53,6.54,6.54,0,0,1,3.85-2.63c6.35,10.35,9.64,23.36,6.11,35.26a27.33,27.33,0,0,1-5.61,10.65c10.5,6.73,21.58,12.92,33.57,16.53-3.43-5.54-7.27-11-8.82-17.45-2.22-8.64-.69-17.92,3.27-25.82,3.53,0,5.7,3,7.87,5.28,6.58,7.72,11.24,17.47,11.38,27.74,0.12,4.84-1.56,9.46-3.29,13.9a124.13,124.13,0,0,0,28.12,4.76,18.37,18.37,0,0,1,6.73,1.19,18,18,0,0,1-5.67,1c-16.54-.63-32.78-4.71-48.16-10.7-2.09,7.54-8.47,12.8-14.77,16.89-8.79,5.46-20,6.4-29.84,3.32,0.21-3.69,2.44-6.77,4.78-9.46,4.44-4.94,9.4-9.61,15.45-12.5,3.8-1.86,8-2.62,12.05-3.67-8.77-5.34-17.71-10.43-25.86-16.72-1.21,7-8.79,9.5-14.66,11.38-11.42,4-24.18,1-33.81-5.93a28.47,28.47,0,0,1,.33-4c11.07-8.93,26.49-11.34,40.07-7.55-3.15-3.66-6.74-6.9-10.1-10.37-5.16-5.29-9.48-11.31-14-17.15-7.16,4.68-16.06,5.63-24.4,4.79a36.72,36.72,0,0,1-22.71-12.58l-0.16-2.42c7.64-4.8,17-6.1,25.89-5.79,4.55,0.24,8.82,1.94,13.24,2.86-2.42-7.06-5.49-13.9-7.66-21-4.1-.42-8.78,1.41-13.12.08-11-.81-21.06-7.3-27.2-16.38A25.76,25.76,0,0,1,0,283.42c5.59-2.82,12-2.18,18-1.93,8,0.49,15.56,4,22,8.7a134.2,134.2,0,0,1,.24-18.27c-7.43-7.55-9.15-19.18-6.37-29.13a44.56,44.56,0,0,1,12.26-20.58h0Zm105,205.9a14.35,14.35,0,0,1,11.78-6.76c3.83-.43,7.5.83,11.17,1.7,0.51-.53,1.54-1.59,2.05-2.13a90.69,90.69,0,0,1,2.93,10.37c-2.78-2.69-5.15-6.26-9.1-7.28-4.24-1-9.58-1.2-12.78,2.27-3.11,3.84-4.48,8.86-4.79,13.72,0.33,5.4.93,11.56,5.2,15.41,4.2,3.58,10.46,2.73,15,.24,3.43-1.59,4.39-5.54,6.65-8.25-0.75,3.81-2.58,7.69-5.91,9.9-4.09,2.84-9.41,3.35-14.2,2.44-5.8-1.35-9.74-6.91-10.74-12.56a25.69,25.69,0,0,1,2.76-19.07h0Zm37.63-4.27c3.62-3.71,9.42-2.83,13.48-.38l1.59-2.74c0.31,2.18.65,4.36,1,6.54a14.43,14.43,0,0,0-11.28-3.61c-2.3,2.07-4.29,5-3.13,8.26,1.39,5.44,7.79,6.07,11.64,9.1,6,3.86,5.38,13.9-.64,17.47-4.1,2.71-9.27,1.63-13.6.13L186,460.42c-0.56-2.53-1.12-5.08-1.61-7.62a13.86,13.86,0,0,0,14.73,4.5,12.86,12.86,0,0,0,1.36-10.92c-2.74-3.58-8-3.54-11-6.78-4.37-3.93-5.24-11.64-.67-15.76h0Zm29.82,0.79c5.46-4.72,13.65-4,19.77-1l1.61-3c1.15,3.51,2.21,7.07,3,10.68-2.73-2.77-5.15-6.31-9.13-7.33-4.85-1.43-11.07-.79-14.12,3.71-4.55,7-4.29,16.13-1.24,23.65,2.22,5.65,9.72,8.15,15,5.2,3.64-2.3,5-7.29,4.09-11.34A27.91,27.91,0,0,0,234,443.6c3-.14,6-0.31,8.95-0.32a167.42,167.42,0,0,1-.25,17.21,43.3,43.3,0,0,1-3.75-3.42,22.18,22.18,0,0,1-16.81,2.48A14.91,14.91,0,0,1,213,450C209.91,441.42,211.79,430.91,218.58,424.63Zm35.4-2.91a114,114,0,0,1,13.07-.4,34.28,34.28,0,0,0-3.72,2,34.35,34.35,0,0,0-.09,6.65c6.91-.17,11.91,7.61,9.64,13.93a12.5,12.5,0,0,1-9.73,7.8,28.39,28.39,0,0,0,.32,6.58c1.2,0.51,2.41,1,3.65,1.41-3.68.27-7.36,0.47-11,.47,2.33-2.2,1.9-5.44,2-8.33-5.36-.93-10.29-5.24-10.4-10.93s4.9-10.17,10.26-11.19q0-3.42,0-6.83l-3.9-1.19m3.56,27.3c0.21-5.52.17-11,.06-16.55-6.21,3-6.18,13.47-.06,16.55m6,0.23c6.52-3.27,6.71-13.94.08-17.15C263.27,437.81,263.37,443.53,263.53,449.25ZM276,421.72c7.07-.38,14.48-1.3,21.34,1,5.38,2,5.9,9.11,4.28,13.81-1,3.19-4.12,4.67-6.87,6a157.14,157.14,0,0,0,8.48,14.24c1.11,1.86,3.41,2.13,5.23,2.92a49.69,49.69,0,0,1-13.78-.16l3.62-1c-1.62-6-6.69-10.28-7.86-16.4l-5.13-.41c-0.19,5.08-.33,10.18-0.07,15.27-0.19,2.13,2.52,2.07,3.83,3-3.67.18-7.33,0.19-11,.22,0.87-1.28,2.09-2.49,1.88-4.16,0-11,.11-22-0.08-33.07L276,421.72m9.36,2q0,7.88,0,15.75c3.41-.35,7.65.93,10.35-1.78,2.35-3.54,1.88-8.14.76-12-3.35-2.11-7.32-2-11.12-1.93h0ZM311,421.38c4.47,0.07,9-.4,13.4.15a18.47,18.47,0,0,1-4.16,1.61c-0.47,11.54-.14,23.13-0.17,34.68,5-.08,10.12.45,15.11-0.32,3.42-.65,4.65-4.39,6.52-6.86a64,64,0,0,1-2.25,9.55c-9.61-.18-19.22.07-28.83-0.14,1.7-1,4.69-1.32,4.18-4,0-10.39.09-20.79,0-31.19,0.35-2.24-2.42-2.49-3.77-3.52h0Zm41.13,0.75c3.72-1.88,7.7,0,11.24,1.38,0.13-.74.4-2.21,0.53-3,0.63,2.26,1.21,4.54,1.68,6.85-2.87-2-5.93-4.4-9.69-3.62-5.36,0-6.11,7.36-3.63,10.86,3.17,3.49,8.33,4.11,11.68,7.43,4.84,4.49,3.46,13.48-2.28,16.58-4,2.31-8.92,1.65-13-.19-0.75.54-1.51,1.08-2.25,1.63-0.55-2.51-1.11-5-1.63-7.51,3,3.42,7.33,6,12.06,5.19,5.1-.86,6.2-7.67,4-11.53-2.92-3.5-8.25-3.48-11.29-6.9-5.06-4.65-4.25-14.64,2.55-17.22h0Z" transform="translate(-0.01 -0.43)"/></svg>