<svg id="Layer_1" data-name="Layer 1" xmlns="http://www.w3.org/2000/svg" viewBox="0 0 661.8 465.21"><defs><style>.cls-1{fill:#fff;}</style></defs><title>HCSS</title><path class="cls-1" d="M661.8,125l-15.26,69.32c-100.8-5.11-232,21.3-347.27,64L265.81,398.2,177.1,422.9l32.44-126.5c-38.32,18.72-72.78,39.14-100.86,60.45L88.76,440.54,0,465.21,91.08,110.26l84.08-32.32-45.4,190.42c27.57-17,61.84-34.51,100.12-51.13l38.34-149.3,84-32.32-35.1,147.56c118.52-41.42,253-69.77,344.68-58.21M462,70.46c2-16.21-5.62-38.82-35.25-38.82-25.37,0-49.09,19.56-56.44,57.93-7.24,37.87,7.81,57.61,34.11,57.61,24.77,0,42-16.67,50.67-40.48h-20.6c-5,13.39-14.42,20.6-25.82,20.6-17.5,0-21.06-17.72-17.33-37.45,6-31,21.92-38.36,31.85-38.36,17,0,17.81,12.41,18.2,19Zm9.23,18.34c-2.61,13.56-.88,36.68,35.15,36.68,8.68,0,39.54-2.92,45.81-35.92C556,69.8,544.77,63.74,532,60.06l-22.78-6.6C505.3,52.4,499.29,50.59,501,42c1.88-9.94,11.86-13.13,19.73-13.13,18,0,17.41,11.62,17,16.45H557.5c2.43-13.41-1.5-35.41-31.71-35.41-32.06,0-42.1,21.53-44.44,33.75-4.61,24.18,10,28.15,25.19,32.22l10.07,2.79c9.93,2.74,16.89,5,15.26,13.62-2.23,11.58-13.58,14.17-23.36,14.17-18,0-18.56-11.56-17.53-17.69H471.23Zm100.27-10c-2.55,13.62-.84,36.67,35.23,36.67,8.64,0,39.47-2.89,45.76-35.92,3.78-19.67-7.44-25.8-20.17-29.49L609.46,43.5c-3.93-1.09-9.9-2.9-8.26-11.45,2-9.87,11.94-13.05,19.74-13.05,18,0,17.44,11.61,17,16.52h19.82C660.25,22,656.35,0,626.08,0,594,0,584,21.54,581.67,33.77c-4.6,24.16,10,28.12,25.19,32.26l10,2.7c9.88,2.79,16.9,5.09,15.28,13.63C630,94,618.61,96.58,608.84,96.58c-18,0-18.55-11.63-17.52-17.75Z"/></svg>