<?xml version="1.0" encoding="utf-8"?>
<!-- Generator: Adobe Illustrator 19.2.0, SVG Export Plug-In . SVG Version: 6.00 Build 0)  -->
<svg version="1.1" id="Layer_1" xmlns="http://www.w3.org/2000/svg" xmlns:xlink="http://www.w3.org/1999/xlink" x="0px" y="0px"
	 viewBox="0 0 443.6 101.1" style="enable-background:new 0 0 443.6 101.1;" xml:space="preserve">
<style type="text/css">
	.st0{fill:#FFFFFF;}
</style>
<title>Oracle</title>
<path class="st0" d="M194.9,58h26l-13.7-22.1l-25.2,40h-11.5l30.7-48c2.3-3.3,6.9-4.1,10.2-1.8c0.7,0.5,1.3,1.1,1.7,1.7l30.8,48.1
	h-11.5l-5.4-9h-26.3L194.9,58z M314.1,66.9V25.2h-9.7V71c0,1.3,0.5,2.5,1.4,3.4c0.9,0.9,2.2,1.5,3.6,1.5h44.4l5.7-8.9H314.1
	L314.1,66.9z M153,59.4c9.5,0,17.1-7.7,17.1-17.1c0-9.5-7.7-17.1-17.1-17.1h-42.6v50.6h9.7V34.1h32.2c4.5,0.2,8.1,4,7.9,8.5
	c-0.2,4.3-3.6,7.8-7.9,7.9h-27.4l29,25.3H168l-19.6-16.4L153,59.4L153,59.4z M50.5,75.8c-14,0-25.3-11.3-25.3-25.3
	c0-14,11.3-25.3,25.3-25.3h29.4c14,0,25.3,11.4,25.3,25.3c0,14-11.3,25.3-25.3,25.3L50.5,75.8L50.5,75.8z M79.2,66.9
	c9.1,0,16.4-7.3,16.4-16.4c0-9.1-7.3-16.4-16.4-16.4H51.1c-9.1,0-16.4,7.3-16.4,16.4c0,9.1,7.3,16.4,16.4,16.4L79.2,66.9L79.2,66.9z
	 M264.1,75.8c-14,0-25.3-11.3-25.3-25.3c0-14,11.3-25.3,25.3-25.3h35l-5.7,8.9h-28.6c-9.1,0-16.4,7.3-16.4,16.4
	c0,9.1,7.3,16.4,16.4,16.4h35.1l-5.7,8.9L264.1,75.8L264.1,75.8z M383.2,66.9c-7.3,0-13.8-4.9-15.8-11.9h41.6l5.7-8.9h-47.4
	c2-7.1,8.4-11.9,15.8-11.9h28.6l5.7-8.9h-35c-14,0-25.3,11.3-25.3,25.3c0,14,11.3,25.3,25.3,25.3h30l5.7-8.9H383.2L383.2,66.9z"/>
<path class="st0" d="M422.7,30.5c0-2.5,2-4.5,4.5-4.5c2.5,0,4.5,2,4.5,4.5c0,2.5-2,4.5-4.5,4.5C424.7,35,422.7,33,422.7,30.5
	C422.7,30.5,422.7,30.5,422.7,30.5z M427.2,36.2c3.1,0,5.7-2.5,5.7-5.7s-2.5-5.7-5.7-5.7c-3.1,0-5.7,2.5-5.7,5.7
	C421.5,33.7,424,36.3,427.2,36.2C427.2,36.3,427.2,36.3,427.2,36.2L427.2,36.2z M426.7,27.2c0.6-0.1,1.1,0,1.7,0.2
	c0.8,0.3,1.3,1,1.2,1.8c0,0.2,0,0.3-0.1,0.5c-0.1,0.5-0.4,0.8-0.8,1.1c-0.1,0.1-0.2,0.1-0.3,0.1l1.5,2.6h-1.4l-1.3-2.4h-0.9v2.4
	h-1.2v-6.4L426.7,27.2L426.7,27.2z M427.1,30.1c0.4,0.1,0.8-0.1,1.1-0.4c0.1-0.2,0.2-0.4,0.1-0.6c0-0.3-0.2-0.6-0.5-0.8
	c-0.4-0.1-0.8-0.1-1.2-0.1h-0.4v1.8H427.1L427.1,30.1z"/>
</svg>
