<svg id="Layer_1" data-name="Layer 1" xmlns="http://www.w3.org/2000/svg" viewBox="0 0 499.4 499.52"><defs><style>.cls-1{fill:#fff;}.cls-2{fill:none;}</style></defs><title>REDLabs</title><path class="cls-1" d="M245.57,0h7.88a252.16,252.16,0,0,1,96,20.8c58.13,25.14,105.8,73.34,130.28,131.75A249.87,249.87,0,0,1,376.16,465.13a250.34,250.34,0,0,1-253.27-.05c-53.5-31.27-94.5-83.1-112.3-142.42A258.32,258.32,0,0,1-.1,260.42v-21c1.56-34.6,10-69,25.53-100A251,251,0,0,1,131.55,29.6C166.45,10.75,206,.8,245.55,0m-108,116.8V329h19.64V233c5-.05,10.1.2,15.1-0.36,5.9,31.95,10.6,64.12,14.9,96.33,7.2,0.07,14.3,0,21.5,0-5.1-33.6-10.9-67.14-17.7-100.45,3.1-1.9,6.3-4,8.6-7,5.1-6.28,6.8-14.62,7-22.56V152c-0.3-9-2-18.6-8.1-25.56s-15.7-9.27-24.6-9.64c-12.1,0-24.3,0-36.4,0m85.2,0V329h57.6V309.57q-19,0-38,0c0-26.3-.05-52.6,0-78.9,8.66,0,17.32,0,26,0,0-6.6,0-13.2,0-19.7-8.65-.1-17.3,0-26-0.1,0.06-24.8,0-49.6.05-74.3,12.22-.1,24.5.1,36.8-0.1-0.1-6.6-.07-13.2-0.1-19.8h-56.4m72.2,0V329c11.66,0,23.3,0,35,0,8.4-.23,17.26-2.63,23.1-9,6.8-7.18,8.56-17.5,8.63-27V153c-0.07-9.1-1.8-18.8-7.84-26-5.74-7-15-10.23-23.88-10.3-11.66.05-23.3,0-35,0M193.2,384.2h10c1.2-2.15,2.36-4.32,3.46-6.52h15.53c1.1,2.16,2.17,4.32,3.2,6.5,3.36,0,6.7,0,10.05,0-7-14.06-14.1-28-21-42.13-7.3,13.93-14.1,28.1-21.2,42.14M138,343.6v40.62h28V375H147.2V343.58H138m124.57,0v40.63c7.46,0,14.9.1,22.36,0a12,12,0,0,0,9.86-5.5c2.9-4.4,2.4-10.6-.7-14.8,5.6-6.8,1.7-18.5-7.2-19.9-8.1-.7-16.3-0.1-24.5-0.3m64.4,5.5a12.53,12.53,0,0,0,2.4,16.68c4.6,4.07,11.1,2.45,16.7,2.76,3.5-.67,5.4,5.15,1.9,6.48-7.75.3-15.5,0-23.2,0.16v9.2H346a12.65,12.65,0,0,0,11.63-6.6,12.33,12.33,0,0,0-3.6-15.7c-3.62-3.1-8.62-2.2-13-2.27-2.15-.1-4.68.4-6.34-1.3-1.9-1.86-.4-5.64,2.2-5.56,7.3-.18,14.7,0,22-0.1v-9.1c-7.4,0-14.7-.1-22,0.07a12.12,12.12,0,0,0-10.1,5.38v-0.1Z" transform="translate(0.1)"/><path class="cls-1" d="M157.2,136.7c7.45,0.37,15.35-1.23,22.42,1.78,6.13,2.95,6.88,10.55,7.12,16.56q0.15,22,0,44c0,5.7-2.22,12.26-8,14.45-6.9,2.4-14.38.8-21.54,1.3v-78.1h0Zm157.5,0c6.1,0.27,12.33-.72,18.32.7,6.1,1.85,8.9,8.62,8.8,14.55q-0.06,71.55,0,143.1c0,5.73-3,12.18-8.9,13.8-6,1.42-12.2.44-18.3,0.72,0-57.63-.1-115.26,0-172.88h0.11ZM271.44,359.56c0-2.3,0-4.6,0-6.9,4.52,0.1,9-.14,13.56.12,3.52,0.34,3.56,5.83.27,6.53-4.6.6-9.3,0.2-13.9,0.3Zm-57.14,2.77c1.13,2.14,2.2,4.3,3.28,6.47-2.17,0-4.34,0-6.5,0q1.56-3.26,3.23-6.45h0Zm57.14,6.1c5.07,0.35,10.38-.87,15.27.83,1.3,1.8,1.5,4.5-.8,5.58-4.8.37-9.6,0.1-14.5,0.1,0-2.17.1-4.34,0.1-6.5h-0.07Z" transform="translate(0.1)"/><path class="cls-2" d="M137.58,116.8q18.21,0,36.43,0c8.9,0.37,18.5,2.76,24.6,9.64s7.9,16.58,8.1,25.56v47c-0.1,7.94-1.8,16.28-7,22.56a29.81,29.81,0,0,1-8.6,7c6.9,33.3,12.6,66.84,17.7,100.45-7.2,0-14.3,0-21.5,0-4.2-32.2-8.9-64.38-14.9-96.33-5,.56-10,0.3-15.1.37v96h-19.6V116.8m19.6,19.9v78.1c7.2-.47,14.7,1.17,21.6-1.3,5.8-2.2,8-8.75,8-14.45q0.15-22,0-44c-0.2-6-1-13.62-7.1-16.57-7-3-14.9-1.4-22.4-1.77h-0.1Zm65.6-19.9h56.4c0.1,6.6,0,13.2.1,19.78-12.2.23-24.5,0-36.8,0.1-0.1,24.76,0,49.53,0,74.3,8.7,0.05,17.4,0,26.07,0v19.7c-8.64,0-17.3,0-26,0q-0.08,39.45,0,78.88c12.65,0,25.3,0,38,0,0,6.5,0,13,0,19.43H223V116.8h-0.08Zm72.2,0c11.7,0,23.3,0,35,0,8.9,0.06,18.2,3.27,23.9,10.3,6.1,7.14,7.8,16.8,7.9,25.9V293c0,9.54-1.8,19.86-8.6,27-5.82,6.4-14.7,8.8-23.1,9-11.64.1-23.3,0-34.94,0V116.8M315,136.7q-0.07,86.4,0,172.87c6.06-.28,12.27.7,18.24-0.72,5.94-1.62,8.9-8.07,8.85-13.8q0-71.55,0-143.1c0.1-5.93-2.7-12.7-8.8-14.55-6-1.42-12.2-.43-18.3-0.7h0ZM193.2,384.2c7.1-14,13.92-28.2,21.22-42.13,6.88,14.1,14,28.07,21,42.13-3.35,0-6.7,0-10,0-1-2.18-2.12-4.34-3.2-6.5H206.6q-1.65,3.3-3.46,6.52h-9.95m21.1-21.87-3.3,6.45,6.5,0-3.3-6.47h0.1ZM138,343.58h9.2V375c6.27,0,12.53,0,18.8,0v9.2H138V343.58Zm124.57,0c8.14,0.2,16.32-.4,24.43.3,8.88,1.42,12.76,13.17,7.16,20a13.2,13.2,0,0,1,.63,14.8,12.32,12.32,0,0,1-9.9,5.5c-7.5.13-14.9,0-22.4,0.06v-40.6m8.8,16c4.6-.1,9.2.4,13.8-0.2,3.3-.7,3.2-6.2-0.3-6.5-4.5-.2-9.08,0-13.6-0.1q0,3.45,0,6.9m0,8.9c0,2.2,0,4.4,0,6.5,4.8,0,9.66.3,14.47-.1,2.3-1.1,2.1-3.7.82-5.6-4.88-1.7-10.2-.5-15.26-0.8h0Zm55.56-19.4a12.26,12.26,0,0,1,10.07-5.4c7.3-.1,14.64,0,22,0v9.1c-7.37.08-14.7-.1-22,0.08-2.7-.1-4.14,3.7-2.3,5.56,1.66,1.73,4.2,1.2,6.34,1.3,4.36,0.06,9.36-.82,13,2.3a12.37,12.37,0,0,1,3.6,15.7,12.65,12.65,0,0,1-11.64,6.6h-21.2v-9.2c7.73-.1,15.5.2,23.2-0.1,3.5-1.32,1.57-7.14-1.94-6.46-5.58-.3-12.1,1.3-16.7-2.78a12.5,12.5,0,0,1-2.4-16.63Z" transform="translate(0.1)"/></svg>