<?xml version="1.0" encoding="utf-8"?>
<!-- Generator: Adobe Illustrator 19.2.0, SVG Export Plug-In . SVG Version: 6.00 Build 0)  -->
<svg version="1.1" id="Layer_1" xmlns="http://www.w3.org/2000/svg" xmlns:xlink="http://www.w3.org/1999/xlink" x="0px" y="0px"
	 viewBox="0 0 496.7 324.2" style="enable-background:new 0 0 496.7 324.2;" xml:space="preserve">
<style type="text/css">
	.st0{fill:#FFFFFF;}
</style>
<title>SIM</title>
<g id="Layer_1-2">
	<rect id="_Path_" x="286.3" y="19.1" class="st0" width="5.5" height="209.2"/>
	<g id="_Group_">
		<path id="_Path_2" class="st0" d="M341.3,31.1l-1.9,24.2l-2.9,0.4l-3.4-10l-3.4,10l-2.9-0.4l-1.9-24.1l3.2-0.2l1.2,15.9l3.8-11
			l3.8,11l1.3-15.9L341.3,31.1z"/>
		<path id="_Path_3" class="st0" d="M367.4,55.5h-3.2V44h-9.5v11.5h-3.2V30.9h3.2v9.8h9.5v-9.8h3.2V55.5z"/>
		<path id="_Path_4" class="st0" d="M392.2,55.1h-14.8V30.8h14.8v3.3h-11.7v7.1h9.6v3.3h-9.6v7.3h11.7L392.2,55.1L392.2,55.1z"/>
		<path id="_Compound_Path_" class="st0" d="M419.8,37.9c0,1.8-0.6,3.5-1.8,4.8c-1.2,1.3-2.9,2-4.7,2h-0.7l6.8,9.4l-2.6,2l-8.3-11.4
			h-2.1v10.5h-3.2V30.9h9.8C417.6,30.9,419.8,33.2,419.8,37.9z M416.6,37.8c0-2.5-1.2-3.7-3.6-3.7h-6.6v7.2h6.9c0.9,0,1.7-0.3,2.3-1
			C416.2,39.6,416.6,38.7,416.6,37.8L416.6,37.8z"/>
		<path id="_Path_5" class="st0" d="M443.8,55.1H429V30.8h14.8v3.3h-11.7v7.1h9.6v3.3h-9.6v7.3h11.7L443.8,55.1L443.8,55.1z"/>
		<path id="_Path_6" class="st0" d="M339.3,109.1h-11.1v-3.3h4V88.2h-4v-3.3h11.1v3.3h-4v17.7h4
			C339.3,105.9,339.3,109.1,339.3,109.1z"/>
		<path id="_Path_7" class="st0" d="M366.7,88.1h-6.1v21.4h-3.2V88.1h-6v-3.3h15.3V88.1z"/>
		<path id="_Path_8" class="st0" d="M340.6,163.1h-14.8v-24.3h3.2v21h11.6V163.1L340.6,163.1L340.6,163.1z"/>
		<path id="_Path_9" class="st0" d="M366.3,163.1h-14.8v-24.4h14.8v3.3h-11.7v7.2h9.6v3.3h-9.6v7.3h11.7L366.3,163.1L366.3,163.1z"
			/>
		<path id="_Compound_Path_2" class="st0" d="M394.2,162.3l-3,1.2l-2.2-6.6h-7.3l-2.1,6.6l-3-1.1l7.6-23.5h2.3L394.2,162.3z
			 M387.9,153.5l-2.5-7.9l-2.6,7.9H387.9z"/>
		<path id="_Compound_Path_3" class="st0" d="M419,154.7c0,2.2-0.8,4.4-2.4,6c-1.5,1.6-3.6,2.6-5.8,2.5h-7.7V139h7.7
			c2.2-0.1,4.3,0.8,5.8,2.5c1.6,1.6,2.4,3.8,2.4,6V154.7z M415.8,154.7v-7.4c0-2.8-2.3-5.1-5.1-5.1h-4.5v17.7h4.5
			c1.4,0,2.7-0.5,3.6-1.5C415.3,157.4,415.8,156.1,415.8,154.7z"/>
		<path id="_Path_10" class="st0" d="M443.8,163.1H429v-24.4h14.8v3.3h-11.7v7.2h9.6v3.3h-9.6v7.3h11.7L443.8,163.1L443.8,163.1z"/>
		<path id="_Compound_Path_4" class="st0" d="M471.5,145.9c0,1.8-0.6,3.5-1.8,4.8c-1.2,1.3-2.9,2-4.7,2h-0.7l6.8,9.4l-2.6,2
			l-8.3-11.4h-2.1v10.5h-3.2v-24.4h9.8C469.2,138.9,471.5,141.2,471.5,145.9z M468.3,145.8c0-2.5-1.2-3.7-3.6-3.7h-6.6v7.2h6.9
			c0.9,0,1.7-0.3,2.3-1C467.9,147.6,468.3,146.7,468.3,145.8L468.3,145.8z"/>
		<path id="_Path_11" class="st0" d="M496.7,156.2c0.1,2.1-0.6,4.1-2.1,5.6c-1.6,1.4-3.6,2.1-5.7,2c-3.3,0.2-6.5-1.3-8.6-3.9
			l2.3-2.2c1.6,1.8,3.8,2.8,6.2,2.7c1.2,0.1,2.4-0.3,3.3-1.1c0.8-0.8,1.3-2,1.2-3.2c0-2.3-1.8-3.6-5.4-4.1c-1.8-0.1-3.6-0.7-5.2-1.6
			c-1.5-1.1-2.4-2.8-2.3-4.7c-0.1-2.1,0.7-4.1,2.2-5.5c1.6-1.4,3.6-2.1,5.7-2c2.3-0.1,4.5,0.7,6.2,2.2l-2,2.7
			c-1.2-1-2.7-1.5-4.2-1.5c-1.2,0-2.3,0.5-3.2,1.3c-0.9,0.7-1.5,1.8-1.5,3c-0.1,1.1,0.6,2.1,1.6,2.4c1,0.3,2,0.5,3.1,0.5
			c2,0.2,4,0.9,5.6,2.2C495.7,152.1,496.8,154.1,496.7,156.2z"/>
		<path id="_Path_12" class="st0" d="M340.9,214.5c-1.8,2.1-4.4,3.4-7.1,3.4c-2.2,0.1-4.3-0.9-5.8-2.5c-1.5-1.6-2.4-3.8-2.3-6v-8.5
			c0-2.2,0.8-4.4,2.3-6c1.5-1.6,3.6-2.6,5.8-2.5c2.6,0.1,4.9,1.3,6.5,3.3l-2.5,2.2c-1-1.3-2.5-2.1-4.1-2.2c-1.4,0-2.6,0.5-3.5,1.6
			c-0.9,1-1.5,2.3-1.4,3.6v8.5c0,1.4,0.5,2.7,1.4,3.7c0.9,1,2.2,1.6,3.5,1.6c1.9,0,3.6-0.9,4.8-2.4L340.9,214.5z"/>
		<path id="_Compound_Path_5" class="st0" d="M367.6,209.3c0,2.2-0.8,4.4-2.4,6c-3.2,3.3-8.4,3.3-11.6,0.2c-0.1-0.1-0.1-0.1-0.2-0.2
			c-1.6-1.6-2.4-3.8-2.4-6v-8.5c0-2.2,0.8-4.4,2.4-6c3.2-3.3,8.4-3.3,11.6-0.2c0.1,0.1,0.1,0.1,0.2,0.2c1.6,1.6,2.4,3.8,2.4,6V209.3
			z M364.3,209.3v-8.5c0-1.4-0.5-2.7-1.5-3.7c-2-2-5.2-2-7.2,0c0,0,0,0,0,0c-1,1-1.5,2.3-1.5,3.7v8.5c0,1.4,0.5,2.7,1.5,3.7
			c0.9,1,2.2,1.6,3.6,1.5c1.4,0,2.7-0.5,3.6-1.5C363.8,212,364.3,210.7,364.3,209.3L364.3,209.3z"/>
		<path id="_Path_13" class="st0" d="M392.5,217.5h-3.2v-5.3l-8.7-12.8v18.2h-3.2V193l3,0.1l8.9,13.4v-13.4h3.2V217.5L392.5,217.5z"
			/>
		<path id="_Path_14" class="st0" d="M418.3,217.5h-3.2v-5.3l-8.7-12.8v18.2h-3.2V193l3,0.1l8.9,13.4v-13.4h3.2V217.5L418.3,217.5
			L418.3,217.5z"/>
		<path id="_Path_15" class="st0" d="M443.8,217.1H429v-24.4h14.8v3.3h-11.7v7.2h9.6v3.3h-9.6v7.3h11.7L443.8,217.1L443.8,217.1z"/>
		<path id="_Path_16" class="st0" d="M470,214.5c-1.8,2.1-4.4,3.4-7.1,3.4c-2.2,0.1-4.3-0.9-5.8-2.5c-1.5-1.6-2.4-3.8-2.3-6v-8.5
			c0-2.2,0.8-4.4,2.3-6c1.5-1.6,3.6-2.6,5.8-2.5c2.6,0.1,4.9,1.3,6.5,3.3l-2.5,2.2c-1-1.3-2.5-2.1-4.1-2.2c-1.4,0-2.6,0.5-3.5,1.6
			c-0.9,1-1.5,2.3-1.4,3.6v8.5c0,1.4,0.5,2.7,1.4,3.7c0.9,1,2.2,1.6,3.5,1.6c1.9,0,3.6-0.9,4.8-2.4L470,214.5z"/>
		<path id="_Path_17" class="st0" d="M495.9,196.1h-6.1v21.4h-3.2v-21.4h-6.1v-3.3h15.3v3.3H495.9L495.9,196.1z"/>
	</g>
</g>
<g id="Layer_2">
	<path class="st0" d="M125.9,0C56.4,0,0,56.4,0,125.9s56.4,125.9,125.9,125.9s125.9-56.4,125.9-125.9S195.4,0,125.9,0z M59.8,164.2
		c-10.4,0.1-20.5-3.4-28.6-9.9l6.6-11c6.5,5,14.4,7.7,22.6,7.9c7.3,0,14.3-4.4,14.3-10.7c0-15.2-40.9-5.4-40.9-34.9
		C33.8,93.2,44,84.1,60,84.1c10.5,0,18.5,3.5,26.1,9.3l-6.8,10.3c-5.6-4.8-12.7-7.3-20-7.3c-5.9,0-12.4,2.9-12.4,9.2
		c0,15,42.1,5.6,42.1,34.9C89,153.3,76,164.2,59.8,164.2z M120.9,162.6H106V85.8h14.9V162.6z M202.7,162.4v-55.5l-20.6,32.8h-5.9
		l-20.5-32.8v55.5h-13.8V85.9h14.5l22.7,36L202,85.8h14.5v76.6H202.7z"/>
	<g id="_Group_3">
		<path id="_Path_22" class="st0" d="M44.8,311.3H32.5v12.3H27v-28.5h5.5v11.3h12.3v-11.3h5.5v28.5h-5.5V311.3z"/>
		<path id="_Compound_Path_6" class="st0" d="M54.9,309.3c0-8.3,5.6-14.9,15.1-14.9s15.1,6.6,15.1,14.9s-5.6,14.9-15.1,14.9
			S54.9,317.6,54.9,309.3z M60.4,309.3c-0.2,5.1,3.7,9.3,8.8,9.5c0.3,0,0.5,0,0.8,0c5.2,0,9.5-4.3,9.5-9.5s-4.3-9.5-9.5-9.5
			c-5-0.3-9.3,3.6-9.6,8.6C60.4,308.7,60.4,309,60.4,309.3z"/>
		<path id="_Path_23" class="st0" d="M107.3,312.9V295h5.5v17.7c0,6.4-4.3,11.5-11.7,11.5s-11.7-5.1-11.7-11.5V295h5.5v17.9
			c-0.1,3.4,2.6,6.1,6,6.2c0,0,0.1,0,0.1,0C104.5,319.1,107.3,316.4,107.3,312.9C107.3,312.9,107.3,312.9,107.3,312.9z"/>
		<path id="_Path_24" class="st0" d="M117.9,302.4c0-4.6,3.8-8,9.7-8c3.5,0,7,1.2,9.7,3.5l-2.5,3.8c-2.1-1.8-4.7-2.7-7.4-2.7
			c-2.2,0-4.6,1.1-4.6,3.4c0,5.6,15.7,2.1,15.7,13c0,4.8-4.9,8.8-10.8,8.8c-3.9,0-7.6-1.3-10.6-3.7l2.4-4.1c2.4,1.8,5.4,2.8,8.4,2.9
			c2.7,0,5.3-1.6,5.3-4C133.1,309.7,117.9,313.4,117.9,302.4z"/>
		<path id="_Path_25" class="st0" d="M162.7,300h-8.5v23.5h-5.5V300h-8.5v-5h22.5V300z"/>
		<path id="_Compound_Path_7" class="st0" d="M164.5,309.3c0-8.3,5.6-14.9,15.1-14.9s15.1,6.6,15.1,14.9s-5.6,14.9-15.1,14.9
			S164.5,317.6,164.5,309.3z M170,309.3c-0.1,5.3,4.2,9.6,9.5,9.7c5.3,0.1,9.6-4.2,9.7-9.5c0.1-5.3-4.2-9.6-9.5-9.7c0,0-0.1,0-0.1,0
			c-5.1-0.2-9.3,3.6-9.6,8.7C170,308.8,170,309,170,309.3z"/>
		<path id="_Path_26" class="st0" d="M204.9,323.6h-5.5v-28.5h5.5l12.6,19.3v-19.3h5.5v28.5h-5.5l-12.6-19.2V323.6z"/>
	</g>
</g>
</svg>
